<svg width="315" height="768" fill="none" xmlns="http://www.w3.org/2000/svg"><path d="M-109.706 713.736a5.09 5.09 0 01-1.541-2.673 4.995 4.995 0 01.196-2.829 4.927 4.927 0 011.703-2.25l80.049-58.563a4.95 4.95 0 012.33-.921 5.047 5.047 0 012.5.332 5.12 5.12 0 013.104 3.785l15.029 79.849a5.01 5.01 0 01-.146 2.434 4.927 4.927 0 01-3.385 3.265 5.035 5.035 0 01-2.44.061l-95.085-21.278a5.115 5.115 0 01-2.314-1.212zm79.969-53.461l-64.676 47.313 76.814 17.184-12.138-64.497z" fill="#FDBFBC"/><path d="M74.12 625.674a22.838 22.838 0 01-5.544-7.754 22.56 22.56 0 01-1.874-9.305 15.126 15.126 0 00-1.25-6.253 15.31 15.31 0 00-9.25-8.445 15.148 15.148 0 00-6.34-.679 22.533 22.533 0 01-9.433-1.019 22.838 22.838 0 01-13.767-12.571 22.56 22.56 0 01-1.874-9.305 15.124 15.124 0 00-1.25-6.253 15.31 15.31 0 00-9.25-8.445 15.132 15.132 0 00-6.34-.679 3.74 3.74 0 01-4.092-3.271 3.637 3.637 0 01.762-2.699 3.624 3.624 0 012.457-1.344 22.56 22.56 0 019.435 1.02 22.854 22.854 0 018.226 4.816 22.815 22.815 0 015.543 7.755 22.533 22.533 0 011.87 9.305 15.153 15.153 0 001.253 6.254 15.347 15.347 0 003.72 5.214 15.328 15.328 0 005.528 3.231 15.14 15.14 0 006.338.678c3.173-.336 6.39.012 9.436 1.018a22.826 22.826 0 018.226 4.818 22.812 22.812 0 015.543 7.754 22.534 22.534 0 011.87 9.305c-.03 2.143.399 4.273 1.258 6.249a15.331 15.331 0 009.245 8.442c2.046.677 4.206.91 6.336.686 3.172-.336 6.39.011 9.435 1.018a22.835 22.835 0 0113.768 12.571 22.54 22.54 0 011.871 9.307 3.629 3.629 0 01-1.1 2.595 3.628 3.628 0 01-2.633 1.018 3.707 3.707 0 01-1.414-.323 3.758 3.758 0 01-1.965-2.069 3.691 3.691 0 01-.249-1.427 15.13 15.13 0 00-1.256-6.25 15.32 15.32 0 00-3.723-5.209 15.324 15.324 0 00-5.523-3.235 15.132 15.132 0 00-6.337-.682 22.533 22.533 0 01-9.433-1.02 22.828 22.828 0 01-8.223-4.817z" fill="#FFBE4D"/><path d="M60.467 640.63a22.838 22.838 0 01-5.544-7.754 22.558 22.558 0 01-1.874-9.305 15.146 15.146 0 00-1.25-6.253 15.334 15.334 0 00-3.72-5.212 15.322 15.322 0 00-5.53-3.232 15.13 15.13 0 00-6.34-.679 22.533 22.533 0 01-9.432-1.02 22.838 22.838 0 01-13.767-12.571 22.56 22.56 0 01-1.874-9.305 15.145 15.145 0 00-1.251-6.253 15.334 15.334 0 00-3.72-5.212 15.321 15.321 0 00-5.529-3.232 15.147 15.147 0 00-6.34-.68 3.721 3.721 0 01-2.712-.798 3.738 3.738 0 01-1.38-2.473c-.115-.97.159-1.94.762-2.699a3.619 3.619 0 012.456-1.343 22.54 22.54 0 019.435 1.021 22.834 22.834 0 0113.767 12.57 22.548 22.548 0 011.873 9.304 15.153 15.153 0 001.252 6.254 15.338 15.338 0 003.72 5.214 15.328 15.328 0 005.528 3.231 15.14 15.14 0 006.339.678 22.54 22.54 0 019.434 1.021 22.835 22.835 0 0113.768 12.571 22.544 22.544 0 011.872 9.303c-.03 2.143.4 4.273 1.258 6.249a15.333 15.333 0 009.246 8.442c2.045.677 4.205.91 6.335.686a22.52 22.52 0 019.434 1.02 22.83 22.83 0 018.224 4.817 22.83 22.83 0 015.543 7.754 22.562 22.562 0 011.874 9.305c-.002.486-.1.966-.289 1.411a3.605 3.605 0 01-2.022 1.958 3.702 3.702 0 01-2.836-.079 3.761 3.761 0 01-1.966-2.069 3.702 3.702 0 01-.248-1.427c.03-2.143-.4-4.273-1.259-6.249a15.343 15.343 0 00-9.245-8.442 15.128 15.128 0 00-6.336-.685 22.533 22.533 0 01-9.433-1.02 22.814 22.814 0 01-8.223-4.817z" fill="#FFBE4D"/><path d="M46.821 655.578a22.825 22.825 0 01-5.547-7.749 22.551 22.551 0 01-1.878-9.302 15.143 15.143 0 00-1.251-6.253 15.336 15.336 0 00-3.72-5.212 15.322 15.322 0 00-5.528-3.232 15.132 15.132 0 00-6.34-.68 22.505 22.505 0 01-9.431-1.023 22.81 22.81 0 01-8.218-4.821 22.834 22.834 0 01-5.545-7.754 22.547 22.547 0 01-1.873-9.306 15.138 15.138 0 00-1.251-6.252 15.338 15.338 0 00-3.72-5.213 15.35 15.35 0 00-5.529-3.232 15.147 15.147 0 00-6.34-.679 3.74 3.74 0 01-4.092-3.271 3.637 3.637 0 01.762-2.699 3.624 3.624 0 012.456-1.344 22.54 22.54 0 019.435 1.021 22.837 22.837 0 0113.767 12.571 22.548 22.548 0 011.873 9.304 15.153 15.153 0 001.252 6.254 15.347 15.347 0 003.72 5.214 15.342 15.342 0 005.528 3.231c2.047.674 4.208.905 6.339.677a22.54 22.54 0 019.435 1.022 22.82 22.82 0 018.224 4.817 22.827 22.827 0 015.543 7.753 22.548 22.548 0 011.872 9.304c-.03 2.143.4 4.273 1.259 6.249a15.333 15.333 0 009.245 8.442c2.045.676 4.205.91 6.336.685a22.536 22.536 0 019.433 1.021 22.83 22.83 0 018.224 4.817 22.835 22.835 0 015.544 7.754 22.549 22.549 0 011.873 9.304 3.623 3.623 0 01-1.129 2.543 3.636 3.636 0 01-2.603.99 3.736 3.736 0 01-2.573-1.135 3.725 3.725 0 01-1.056-2.603c.03-2.143-.4-4.273-1.258-6.249a15.333 15.333 0 00-9.246-8.442 15.144 15.144 0 00-6.335-.686 22.501 22.501 0 01-9.434-1.018 22.795 22.795 0 01-8.223-4.818z" fill="#FFBE4D"/><path d="M170.087 407.24a5.084 5.084 0 01-1.542-2.672 4.996 4.996 0 01.197-2.829 4.932 4.932 0 011.702-2.25l80.049-58.563a4.965 4.965 0 012.326-.911 5.06 5.06 0 012.492.335 5.134 5.134 0 012.035 1.5c.543.662.91 1.448 1.069 2.286l15.041 79.835a5.014 5.014 0 01-.151 2.424 4.942 4.942 0 01-3.382 3.258 5.016 5.016 0 01-2.441.06l-95.085-21.278a5.096 5.096 0 01-2.31-1.195zm79.968-53.46l-64.675 47.313 76.813 17.184-12.138-64.497zM-109.706 713.736a5.09 5.09 0 01-1.541-2.673 4.995 4.995 0 01.196-2.829 4.927 4.927 0 011.703-2.25l80.049-58.563a4.95 4.95 0 012.33-.921 5.047 5.047 0 012.5.332 5.12 5.12 0 013.104 3.785l15.029 79.849a5.01 5.01 0 01-.146 2.434 4.927 4.927 0 01-3.385 3.265 5.035 5.035 0 01-2.44.061l-95.085-21.278a5.115 5.115 0 01-2.314-1.212zm79.969-53.461l-64.676 47.313 76.814 17.184-12.138-64.497z" fill="#FDBFBC"/><path d="M186.658 486.995l22.495-.867c.435-.015.86-.117 1.252-.298a3.188 3.188 0 001.033-.759 3.218 3.218 0 00.842-2.37 3.353 3.353 0 00-1.09-2.298 3.357 3.357 0 00-2.386-.878l-22.469.867-1.18-22.469a3.355 3.355 0 00-1.09-2.298 3.351 3.351 0 00-2.386-.877 3.25 3.25 0 00-1.25.297c-.392.18-.743.438-1.032.757a3.24 3.24 0 00-.844 2.373l1.167 22.483-22.469.867a3.239 3.239 0 00-2.285 1.056 3.238 3.238 0 00-.844 2.373 3.337 3.337 0 001.092 2.296 3.36 3.36 0 001.108.676c.409.151.842.22 1.276.203l22.469-.866 1.18 22.469a3.341 3.341 0 001.092 2.296c.322.295.698.525 1.107.676a3.313 3.313 0 002.528-.096 3.214 3.214 0 001.034-.758c.292-.318.516-.691.661-1.099.145-.407.207-.84.183-1.274l-1.194-22.482z" fill="#FFBE4D"/><path d="M140.052 312.992l-4.782-64.76 10.774-.644 4.78 64.759-10.772.645zm-1.476-61.864l4.328 58.6 4.609-.267-4.321-58.608-4.616.275z" fill="#BDEBE6"/><path d="M28.473 338.673c20.032-.783 35.418-17.875 34.366-38.176-1.052-20.301-18.144-36.124-38.176-35.34-20.032.783-35.418 17.875-34.366 38.176 1.052 20.301 18.144 36.123 38.176 35.34z" fill="#E89C38"/><path d="M62.718 308.73a4.999 4.999 0 002.487 2.839 4.92 4.92 0 003.743.279 4.806 4.806 0 002.805-2.446 4.887 4.887 0 00.229-3.736 4.96 4.96 0 00-1.448-2.138 64.782 64.782 0 00-2.767-1.205 4.876 4.876 0 00-2.023.222 4.803 4.803 0 00-2.802 2.449 4.884 4.884 0 00-.224 3.736zM51.087 317.875a4.81 4.81 0 002.805-2.447 4.887 4.887 0 00.229-3.736 5 5 0 00-2.49-2.837 4.925 4.925 0 00-3.742-.279 4.804 4.804 0 00-2.806 2.448 4.882 4.882 0 00-.225 3.737 4.993 4.993 0 002.487 2.837 4.913 4.913 0 003.742.277zM33.223 323.898a4.806 4.806 0 002.806-2.447c.568-1.16.65-2.505.225-3.738a4.976 4.976 0 00-.963-1.663 4.978 4.978 0 00-3.372-1.688 4.879 4.879 0 00-1.894.232 4.807 4.807 0 00-2.806 2.446 4.885 4.885 0 00-.228 3.737 4.999 4.999 0 002.488 2.84 4.916 4.916 0 003.744.281zM15.356 329.919a4.806 4.806 0 003.292-4.288 4.922 4.922 0 00-.26-1.897 4.999 4.999 0 00-2.487-2.839 4.925 4.925 0 00-3.743-.28 4.81 4.81 0 00-2.805 2.447 4.887 4.887 0 00-.23 3.736 5.004 5.004 0 002.489 2.841 4.92 4.92 0 003.744.28zM-2.513 335.943a4.806 4.806 0 002.805-2.446 4.89 4.89 0 00.23-3.737 5.003 5.003 0 00-2.488-2.837 4.919 4.919 0 00-3.742-.281 4.748 4.748 0 00-1.745 1.028 57.983 57.983 0 00-1.46 2.601 4.882 4.882 0 00.177 2.569 5.005 5.005 0 002.489 2.826 4.922 4.922 0 003.734.277zM54.617 298.929c.149-.047.294-.103.436-.168a66.003 66.003 0 00-5.037-.656c.643.509 1.4.85 2.204.994a4.87 4.87 0 002.397-.17zM30.542 301.826a5.004 5.004 0 002.488 2.839 4.93 4.93 0 003.743.281 4.812 4.812 0 002.805-2.449 4.89 4.89 0 00.227-3.738 5.181 5.181 0 00-.23-.549c-3.13.263-6.233.768-9.28 1.51a4.87 4.87 0 00.237 2.107l.01-.001zM12.67 307.845a5.005 5.005 0 002.49 2.839 4.931 4.931 0 003.745.282 4.817 4.817 0 002.807-2.449c.57-1.16.652-2.505.23-3.739a4.976 4.976 0 00-1.112-1.823 60.593 60.593 0 00-8.326 4.314c.04.195.093.387.156.576h.01zM4.188 313.572a60.143 60.143 0 00-3.624 3.533 4.835 4.835 0 002.478-1.421 4.825 4.825 0 001.146-2.112zM101.423 364.498a4.999 4.999 0 004.332 3.355c.448-3.237.633-6.508.552-9.782a4.818 4.818 0 00-1.844.236 4.825 4.825 0 00-2.813 2.448 4.852 4.852 0 00-.486 1.843 4.932 4.932 0 00.259 1.9zM86.585 364.333a4.81 4.81 0 00-2.805 2.447 4.887 4.887 0 00-.23 3.736 5.001 5.001 0 002.488 2.838 4.928 4.928 0 003.742.281 4.81 4.81 0 002.805-2.447 4.887 4.887 0 00.23-3.736 4.999 4.999 0 00-2.488-2.839 4.92 4.92 0 00-3.742-.28zM68.718 370.354a4.81 4.81 0 00-2.805 2.447 4.887 4.887 0 00-.23 3.736 5.002 5.002 0 002.488 2.838 4.928 4.928 0 003.742.281 4.81 4.81 0 002.805-2.447 4.887 4.887 0 00.23-3.736 5 5 0 00-2.488-2.837 4.924 4.924 0 00-3.742-.282zM50.851 376.376a4.806 4.806 0 00-2.804 2.448 4.888 4.888 0 00-.227 3.737 4.999 4.999 0 002.486 2.839 4.92 4.92 0 003.743.28 4.81 4.81 0 002.805-2.447 4.887 4.887 0 00.23-3.736 4.999 4.999 0 00-2.489-2.84 4.916 4.916 0 00-3.744-.281zM32.985 382.402a4.806 4.806 0 00-3.293 4.286c-.04.642.049 1.286.259 1.897a5 5 0 002.487 2.837 4.919 4.919 0 003.742.281 4.806 4.806 0 002.804-2.448c.569-1.16.65-2.503.227-3.737a4.996 4.996 0 00-2.486-2.836 4.919 4.919 0 00-3.74-.28zM15.113 388.429a4.806 4.806 0 00-2.805 2.446 4.89 4.89 0 00-.229 3.737 5 5 0 002.49 2.836 4.916 4.916 0 003.742.279 4.806 4.806 0 002.805-2.446 4.887 4.887 0 00.23-3.736 5 5 0 00-2.49-2.837 4.92 4.92 0 00-3.743-.279zM3.49 397.557a4.984 4.984 0 00-2.481-2.833 4.907 4.907 0 00-3.736-.279 4.764 4.764 0 00-1.608.908 62.043 62.043 0 006.457 7.438 4.808 4.808 0 001.48-2.399 4.897 4.897 0 00-.111-2.835zM90.143 345.386a4.807 4.807 0 00-2.806 2.446 4.885 4.885 0 00-.228 3.737 5.002 5.002 0 002.488 2.838 4.928 4.928 0 003.742.281 4.81 4.81 0 002.805-2.447 4.887 4.887 0 00.229-3.736 5.002 5.002 0 00-2.488-2.838 4.928 4.928 0 00-3.742-.281zM75.475 360.717a4.81 4.81 0 002.805-2.447 4.887 4.887 0 00.23-3.736 5 5 0 00-2.49-2.837 4.925 4.925 0 00-3.742-.279 4.807 4.807 0 00-2.806 2.448 4.883 4.883 0 00-.226 3.737 4.993 4.993 0 002.488 2.837 4.913 4.913 0 003.741.277zM57.61 366.74a4.804 4.804 0 002.806-2.448 4.882 4.882 0 00.226-3.737 4.99 4.99 0 00-4.335-3.351 4.879 4.879 0 00-1.894.232 4.807 4.807 0 00-2.807 2.446 4.885 4.885 0 00-.227 3.737 4.998 4.998 0 002.488 2.84 4.925 4.925 0 003.744.281zM39.745 372.761a4.802 4.802 0 002.805-2.447c.569-1.16.65-2.505.226-3.738a4.999 4.999 0 00-2.487-2.839 4.925 4.925 0 00-3.742-.28 4.81 4.81 0 00-2.805 2.447 4.887 4.887 0 00-.23 3.736A5.004 5.004 0 0036 372.481a4.92 4.92 0 003.745.28zM18.68 369.473a4.81 4.81 0 00-2.806 2.447 4.887 4.887 0 00-.229 3.736 5.001 5.001 0 002.489 2.839 4.918 4.918 0 003.743.277 4.807 4.807 0 002.806-2.446 4.884 4.884 0 00.228-3.737 5.006 5.006 0 00-2.489-2.837 4.925 4.925 0 00-3.743-.279zM.827 375.507a4.808 4.808 0 00-2.805 2.449 4.887 4.887 0 00-.227 3.737 4.994 4.994 0 002.487 2.838 4.916 4.916 0 003.743.28 4.81 4.81 0 002.805-2.447 4.887 4.887 0 00.229-3.736 5.002 5.002 0 00-2.488-2.84 4.925 4.925 0 00-3.744-.281zM79.465 402.233a4.811 4.811 0 00-2.81 2.45 4.89 4.89 0 00-.225 3.742 4.948 4.948 0 001.685 2.341 59.848 59.848 0 007.512-5.623 5.004 5.004 0 00-2.515-2.681 4.923 4.923 0 00-3.647-.229zM67.833 411.375a5 5 0 00-2.49-2.837 4.925 4.925 0 00-3.743-.279 4.807 4.807 0 00-2.806 2.446 4.884 4.884 0 00-.228 3.737 4.999 4.999 0 004.26 3.349c.621-.184 1.24-.359 1.858-.561.618-.202 1.22-.437 1.827-.66a4.807 4.807 0 001.442-2.389 4.9 4.9 0 00-.12-2.806zM43.731 414.275a4.8 4.8 0 00-2.755 2.349 4.87 4.87 0 00-.34 3.624c3.145.249 6.3.255 9.439.015a4.889 4.889 0 00-.1-2.862 4.99 4.99 0 00-2.492-2.848 4.971 4.971 0 00-1.853-.512 4.881 4.881 0 00-1.899.234zM97.856 383.462a4.965 4.965 0 002.237 2.706 60.912 60.912 0 003.507-9.002 4.87 4.87 0 00-2.705.099 4.82 4.82 0 00-3.3 4.297c-.038.643.05 1.288.261 1.9zM83.023 383.283a4.81 4.81 0 00-2.805 2.447 4.887 4.887 0 00-.23 3.736 5.003 5.003 0 002.49 2.837 4.925 4.925 0 003.743.279 4.807 4.807 0 002.805-2.448c.569-1.16.65-2.504.226-3.738a4.998 4.998 0 00-2.488-2.835 4.916 4.916 0 00-3.741-.278zM65.156 389.304a4.81 4.81 0 00-2.805 2.447 4.887 4.887 0 00-.229 3.736 5 5 0 002.49 2.837 4.92 4.92 0 003.742.279 4.807 4.807 0 002.807-2.446 4.884 4.884 0 00.227-3.737 5.003 5.003 0 00-2.489-2.837 4.925 4.925 0 00-3.743-.279zM47.29 395.325a4.81 4.81 0 00-2.806 2.447 4.887 4.887 0 00-.229 3.736 4.999 4.999 0 002.487 2.839 4.92 4.92 0 003.743.28 4.81 4.81 0 002.805-2.447 4.887 4.887 0 00.229-3.736 5.002 5.002 0 00-2.487-2.838 4.928 4.928 0 00-3.743-.281zM29.423 401.347a4.806 4.806 0 00-2.804 2.448 4.888 4.888 0 00-.227 3.737 4.999 4.999 0 002.486 2.839 4.92 4.92 0 003.743.279 4.8 4.8 0 002.806-2.446 4.882 4.882 0 00.228-3.736 5.004 5.004 0 00-2.488-2.841 4.92 4.92 0 00-3.744-.28zM11.577 407.366a4.782 4.782 0 00-2.209 1.522 62.493 62.493 0 008.316 5.063 4.853 4.853 0 00.113-3.471 4.992 4.992 0 00-2.482-2.836 4.907 4.907 0 00-3.738-.278zM90.66 332.631a5 5 0 002.49 2.837 4.924 4.924 0 003.742.279 4.793 4.793 0 003.175-3.481 60.512 60.512 0 00-3.268-5.811 4.868 4.868 0 00-3.108-.008 4.806 4.806 0 00-2.803 2.448 4.886 4.886 0 00-.228 3.736zM79.04 341.77a4.808 4.808 0 002.805-2.448c.569-1.16.65-2.504.226-3.738a5 5 0 00-2.487-2.837 4.919 4.919 0 00-3.743-.281 4.806 4.806 0 00-2.804 2.448 4.887 4.887 0 00-.227 3.737 4.998 4.998 0 002.487 2.839 4.925 4.925 0 003.743.28zM61.168 347.796a4.81 4.81 0 002.804-2.448c.569-1.16.65-2.504.227-3.737a4.998 4.998 0 00-2.486-2.839 4.916 4.916 0 00-3.743-.28 4.81 4.81 0 00-2.805 2.447 4.887 4.887 0 00-.23 3.736 5.002 5.002 0 002.489 2.84 4.925 4.925 0 003.744.281zM43.994 353.533c2.39-1.236 3.301-4.197 2.037-6.614-1.264-2.417-4.226-3.374-6.615-2.138-2.389 1.236-3.3 4.198-2.036 6.615 1.264 2.416 4.225 3.374 6.614 2.137zM25.437 359.836a4.81 4.81 0 002.805-2.447 4.887 4.887 0 00.23-3.736 5.001 5.001 0 00-2.488-2.838 4.928 4.928 0 00-3.742-.281 4.808 4.808 0 00-2.806 2.448 4.885 4.885 0 00-.226 3.738 4.996 4.996 0 002.487 2.836 4.919 4.919 0 003.74.28zM3.82 365.573c2.441 1.217 5.384.248 6.573-2.165 1.19-2.413.175-5.355-2.266-6.573-2.441-1.217-5.384-.248-6.573 2.165-1.19 2.413-.174 5.355 2.266 6.573zM82.599 322.822a4.806 4.806 0 002.804-2.448c.569-1.16.65-2.503.227-3.737a4.998 4.998 0 00-2.487-2.839 4.925 4.925 0 00-3.742-.28 4.81 4.81 0 00-2.805 2.447 4.887 4.887 0 00-.23 3.736 5.004 5.004 0 002.489 2.841 4.92 4.92 0 003.744.28zM64.732 328.843a4.806 4.806 0 002.805-2.446 4.887 4.887 0 00.229-3.736 5.003 5.003 0 00-2.488-2.836 4.922 4.922 0 00-3.742-.283 4.807 4.807 0 00-2.806 2.446 4.884 4.884 0 00-.228 3.737 5 5 0 002.488 2.837 4.919 4.919 0 003.742.281zM46.865 334.865a4.81 4.81 0 002.805-2.447 4.887 4.887 0 00.23-3.736 5 5 0 00-2.49-2.837 4.925 4.925 0 00-3.743-.279 4.807 4.807 0 00-2.806 2.446 4.884 4.884 0 00-.228 3.737 5.002 5.002 0 002.49 2.837 4.925 4.925 0 003.742.279zM29.004 340.891a4.81 4.81 0 002.805-2.447 4.887 4.887 0 00.23-3.736 5 5 0 00-2.49-2.837 4.925 4.925 0 00-3.743-.279 4.805 4.805 0 00-2.8 2.445 4.886 4.886 0 00-.23 3.733 4.985 4.985 0 004.334 3.352 4.877 4.877 0 001.894-.231zM11.134 346.909a4.803 4.803 0 002.806-2.447c.569-1.16.65-2.504.226-3.738a4.999 4.999 0 00-2.487-2.839 4.92 4.92 0 00-3.743-.279 4.806 4.806 0 00-2.805 2.446 4.887 4.887 0 00-.229 3.736 5.004 5.004 0 002.488 2.841 4.92 4.92 0 003.744.28z" fill="#FFBE4D"/><path d="M-8.84 480.634a4.898 4.898 0 01-1.178-1.633 4.847 4.847 0 01-.417-1.962 34.736 34.736 0 012.666-13.464 34.363 34.363 0 017.665-11.326 34.408 34.408 0 0111.438-7.504 34.813 34.813 0 0113.51-2.481c9.356.138 18.326 3.98 24.943 10.681 6.616 6.702 10.34 15.716 10.351 25.065a4.728 4.728 0 01-1.415 3.377 4.735 4.735 0 01-3.404 1.353 4.895 4.895 0 01-4.8-4.882 25.695 25.695 0 00-1.949-9.836A26 26 0 0043 459.638a26.005 26.005 0 00-8.324-5.688 25.73 25.73 0 00-9.829-2.074 25.31 25.31 0 00-9.827 1.804 25.035 25.035 0 00-8.322 5.458 25.024 25.024 0 00-5.572 8.24 25.291 25.291 0 00-1.941 9.792 4.762 4.762 0 01-.37 1.834 4.716 4.716 0 01-2.608 2.56 4.849 4.849 0 01-5.047-.93z" fill="#BDEBE6"/><path d="M31.437 136.779a4.717 4.717 0 011.76-.927 4.766 4.766 0 011.996-.121 35.54 35.54 0 0113.046 4.62 35.804 35.804 0 0110.326 9.263 35.602 35.602 0 016.079 12.442 35.1 35.1 0 01.844 13.755c-1.255 9.253-6.139 17.578-13.58 23.15-7.442 5.572-16.832 7.934-26.111 6.569a4.898 4.898 0 01-3.183-1.893 4.854 4.854 0 01-.944-3.569 4.718 4.718 0 013.536-3.959 4.809 4.809 0 011.875-.092c3.34.503 6.739.339 9.998-.48a25.117 25.117 0 008.989-4.294 25.01 25.01 0 006.642-7.415 25.198 25.198 0 003.237-9.44 25.571 25.571 0 00-.625-10.001 25.94 25.94 0 00-4.424-9.045 26.067 26.067 0 00-7.514-6.742 25.894 25.894 0 00-9.491-3.367 4.877 4.877 0 01-3.186-1.891 4.88 4.88 0 01-.827-1.696 4.816 4.816 0 01-.119-1.874 4.726 4.726 0 011.676-2.993z" fill="#937AB9"/><path d="M74.12 625.674a22.838 22.838 0 01-5.544-7.754 22.56 22.56 0 01-1.874-9.305 15.126 15.126 0 00-1.25-6.253 15.31 15.31 0 00-9.25-8.445 15.148 15.148 0 00-6.34-.679 22.533 22.533 0 01-9.433-1.019 22.838 22.838 0 01-13.767-12.571 22.56 22.56 0 01-1.874-9.305 15.124 15.124 0 00-1.25-6.253 15.31 15.31 0 00-9.25-8.445 15.132 15.132 0 00-6.34-.679 3.74 3.74 0 01-4.092-3.271 3.637 3.637 0 01.762-2.699 3.624 3.624 0 012.457-1.344 22.56 22.56 0 019.435 1.02 22.854 22.854 0 018.226 4.816 22.815 22.815 0 015.543 7.755 22.533 22.533 0 011.87 9.305 15.153 15.153 0 001.253 6.254 15.347 15.347 0 003.72 5.214 15.328 15.328 0 005.528 3.231 15.14 15.14 0 006.338.678c3.173-.336 6.39.012 9.436 1.018a22.826 22.826 0 018.226 4.818 22.812 22.812 0 015.543 7.754 22.534 22.534 0 011.87 9.305c-.03 2.143.399 4.273 1.258 6.249a15.331 15.331 0 009.245 8.442c2.046.677 4.206.91 6.336.686 3.172-.336 6.39.011 9.435 1.018a22.835 22.835 0 0113.768 12.571 22.54 22.54 0 011.871 9.307 3.629 3.629 0 01-1.1 2.595 3.628 3.628 0 01-2.633 1.018 3.707 3.707 0 01-1.414-.323 3.758 3.758 0 01-1.965-2.069 3.691 3.691 0 01-.249-1.427 15.13 15.13 0 00-1.256-6.25 15.32 15.32 0 00-3.723-5.209 15.324 15.324 0 00-5.523-3.235 15.132 15.132 0 00-6.337-.682 22.533 22.533 0 01-9.433-1.02 22.828 22.828 0 01-8.223-4.817z" fill="#FFBE4D"/><path d="M60.467 640.63a22.838 22.838 0 01-5.544-7.754 22.558 22.558 0 01-1.874-9.305 15.146 15.146 0 00-1.25-6.253 15.334 15.334 0 00-3.72-5.212 15.322 15.322 0 00-5.53-3.232 15.13 15.13 0 00-6.34-.679 22.533 22.533 0 01-9.432-1.02 22.838 22.838 0 01-13.767-12.571 22.56 22.56 0 01-1.874-9.305 15.145 15.145 0 00-1.251-6.253 15.334 15.334 0 00-3.72-5.212 15.321 15.321 0 00-5.529-3.232 15.147 15.147 0 00-6.34-.68 3.721 3.721 0 01-2.712-.798 3.738 3.738 0 01-1.38-2.473c-.115-.97.159-1.94.762-2.699a3.619 3.619 0 012.456-1.343 22.54 22.54 0 019.435 1.021 22.834 22.834 0 0113.767 12.57 22.548 22.548 0 011.873 9.304 15.153 15.153 0 001.252 6.254 15.338 15.338 0 003.72 5.214 15.328 15.328 0 005.528 3.231 15.14 15.14 0 006.339.678 22.54 22.54 0 019.434 1.021 22.835 22.835 0 0113.768 12.571 22.544 22.544 0 011.872 9.303c-.03 2.143.4 4.273 1.258 6.249a15.333 15.333 0 009.246 8.442c2.045.677 4.205.91 6.335.686a22.52 22.52 0 019.434 1.02 22.83 22.83 0 018.224 4.817 22.83 22.83 0 015.543 7.754 22.562 22.562 0 011.874 9.305c-.002.486-.1.966-.289 1.411a3.605 3.605 0 01-2.022 1.958 3.702 3.702 0 01-2.836-.079 3.761 3.761 0 01-1.966-2.069 3.702 3.702 0 01-.248-1.427c.03-2.143-.4-4.273-1.259-6.249a15.343 15.343 0 00-9.245-8.442 15.128 15.128 0 00-6.336-.685 22.533 22.533 0 01-9.433-1.02 22.814 22.814 0 01-8.223-4.817z" fill="#FFBE4D"/><path d="M46.821 655.578a22.825 22.825 0 01-5.547-7.749 22.551 22.551 0 01-1.878-9.302 15.143 15.143 0 00-1.251-6.253 15.336 15.336 0 00-3.72-5.212 15.322 15.322 0 00-5.528-3.232 15.132 15.132 0 00-6.34-.68 22.505 22.505 0 01-9.431-1.023 22.81 22.81 0 01-8.218-4.821 22.834 22.834 0 01-5.545-7.754 22.547 22.547 0 01-1.873-9.306 15.138 15.138 0 00-1.251-6.252 15.338 15.338 0 00-3.72-5.213 15.35 15.35 0 00-5.529-3.232 15.147 15.147 0 00-6.34-.679 3.74 3.74 0 01-4.092-3.271 3.637 3.637 0 01.762-2.699 3.624 3.624 0 012.456-1.344 22.54 22.54 0 019.435 1.021 22.837 22.837 0 0113.767 12.571 22.548 22.548 0 011.873 9.304 15.153 15.153 0 001.252 6.254 15.347 15.347 0 003.72 5.214 15.342 15.342 0 005.528 3.231c2.047.674 4.208.905 6.339.677a22.54 22.54 0 019.435 1.022 22.82 22.82 0 018.224 4.817 22.827 22.827 0 015.543 7.753 22.548 22.548 0 011.872 9.304c-.03 2.143.4 4.273 1.259 6.249a15.333 15.333 0 009.245 8.442c2.045.676 4.205.91 6.336.685a22.536 22.536 0 019.433 1.021 22.83 22.83 0 018.224 4.817 22.835 22.835 0 015.544 7.754 22.549 22.549 0 011.873 9.304 3.623 3.623 0 01-1.129 2.543 3.636 3.636 0 01-2.603.99 3.736 3.736 0 01-2.573-1.135 3.725 3.725 0 01-1.056-2.603c.03-2.143-.4-4.273-1.258-6.249a15.333 15.333 0 00-9.246-8.442 15.144 15.144 0 00-6.335-.686 22.501 22.501 0 01-9.434-1.018 22.795 22.795 0 01-8.223-4.818z" fill="#FFBE4D"/><path d="M108.918 520.142L83.6 529.387l9.54 25.612 25.317-9.246-9.539-25.611z" fill="#937AB9"/><path d="M-136.409 127.448a5.083 5.083 0 01-1.541-2.672 5.008 5.008 0 01.196-2.83 4.931 4.931 0 011.703-2.249l80.055-58.558a4.951 4.951 0 012.326-.91c.842-.101 1.7.014 2.492.334a5.13 5.13 0 013.103 3.786l15.036 79.83a5.003 5.003 0 01-.145 2.433 4.933 4.933 0 01-3.384 3.267 5.017 5.017 0 01-2.442.06l-95.085-21.278a5.112 5.112 0 01-2.314-1.213zm79.969-53.46l-64.675 47.312 76.813 17.185-12.138-64.497zM170.087 407.24a5.084 5.084 0 01-1.542-2.672 4.996 4.996 0 01.197-2.829 4.932 4.932 0 011.702-2.25l80.049-58.563a4.965 4.965 0 012.326-.911 5.06 5.06 0 012.492.335 5.134 5.134 0 012.035 1.5c.543.662.91 1.448 1.069 2.286l15.041 79.835a5.014 5.014 0 01-.151 2.424 4.942 4.942 0 01-3.382 3.258 5.016 5.016 0 01-2.441.06l-95.085-21.278a5.096 5.096 0 01-2.31-1.195zm79.968-53.46l-64.675 47.313 76.813 17.184-12.138-64.497z" fill="#FDBFBC"/><path d="M140.052 312.992l-4.782-64.76 10.774-.644 4.78 64.759-10.772.645zm-1.476-61.864l4.328 58.6 4.609-.267-4.321-58.608-4.616.275z" fill="#BDEBE6"/><path d="M31.437 136.779a4.717 4.717 0 011.76-.927 4.766 4.766 0 011.996-.121 35.54 35.54 0 0113.046 4.62 35.804 35.804 0 0110.326 9.263 35.602 35.602 0 016.079 12.442 35.1 35.1 0 01.844 13.755c-1.255 9.253-6.139 17.578-13.58 23.15-7.442 5.572-16.832 7.934-26.111 6.569a4.898 4.898 0 01-3.183-1.893 4.854 4.854 0 01-.944-3.569 4.718 4.718 0 013.536-3.959 4.809 4.809 0 011.875-.092c3.34.503 6.739.339 9.998-.48a25.117 25.117 0 008.989-4.294 25.01 25.01 0 006.642-7.415 25.198 25.198 0 003.237-9.44 25.571 25.571 0 00-.625-10.001 25.94 25.94 0 00-4.424-9.045 26.067 26.067 0 00-7.514-6.742 25.894 25.894 0 00-9.491-3.367 4.877 4.877 0 01-3.186-1.891 4.88 4.88 0 01-.827-1.696 4.816 4.816 0 01-.119-1.874 4.726 4.726 0 011.676-2.993z" fill="#937AB9"/><path d="M-136.409 127.448a5.083 5.083 0 01-1.541-2.672 5.008 5.008 0 01.196-2.83 4.931 4.931 0 011.703-2.249l80.055-58.558a4.951 4.951 0 012.326-.91c.842-.101 1.7.014 2.492.334a5.13 5.13 0 013.103 3.786l15.036 79.83a5.003 5.003 0 01-.145 2.433 4.933 4.933 0 01-3.384 3.267 5.017 5.017 0 01-2.442.06l-95.085-21.278a5.112 5.112 0 01-2.314-1.213zm79.969-53.46l-64.675 47.312 76.813 17.185-12.138-64.497z" fill="#FDBFBC"/></svg>