<svg width="320" height="745" fill="none" xmlns="http://www.w3.org/2000/svg"><path d="M-128.867 691.203a4.997 4.997 0 01-1.522-2.662 5.016 5.016 0 011.933-5.091l80.396-59.113a5.013 5.013 0 014.831-.623 5.025 5.025 0 013.075 3.763l14.463 79.736a5.024 5.024 0 01-6.006 5.8l-94.866-20.614a5.028 5.028 0 01-2.304-1.196zm80.28-54.011l-64.956 47.757 76.637 16.648-11.68-64.405z" fill="#FDBFBC"/><path d="M54.869 602.731a22.536 22.536 0 01-7.335-17.108 15.114 15.114 0 00-4.914-11.498 15.141 15.141 0 00-5.533-3.213 15.14 15.14 0 00-6.367-.638 22.517 22.517 0 01-23.218-13.508 22.531 22.531 0 01-1.818-9.347A15.11 15.11 0 00.77 535.922a15.128 15.128 0 00-11.9-3.851 3.7 3.7 0 01-.827-7.351 22.547 22.547 0 0117.707 5.747 22.507 22.507 0 017.33 17.108 15.134 15.134 0 004.917 11.5 15.134 15.134 0 0011.896 3.848A22.533 22.533 0 0147.6 568.67a22.506 22.506 0 017.33 17.108 15.135 15.135 0 004.926 11.488 15.122 15.122 0 0011.888 3.861 22.513 22.513 0 0117.705 5.745 22.524 22.524 0 017.33 17.109 3.695 3.695 0 01-2.345 3.406 3.69 3.69 0 01-4.037-.897 3.693 3.693 0 01-1.013-2.664 15.123 15.123 0 00-16.813-15.349 22.52 22.52 0 01-17.701-5.746z" fill="#FFBE4D"/><path d="M41.216 617.687a22.541 22.541 0 01-7.335-17.108 15.126 15.126 0 00-4.914-11.498 15.143 15.143 0 00-11.9-3.851A22.52 22.52 0 01-6.15 571.722a22.531 22.531 0 01-1.818-9.347 15.123 15.123 0 00-4.914-11.497 15.13 15.13 0 00-11.9-3.851 3.7 3.7 0 01-.827-7.351A22.529 22.529 0 01-.573 562.531a15.133 15.133 0 004.917 11.5 15.135 15.135 0 0011.897 3.849 22.527 22.527 0 0123.22 13.509 22.52 22.52 0 011.816 9.345 15.133 15.133 0 004.925 11.488 15.122 15.122 0 0011.888 3.861 22.523 22.523 0 0125.036 22.855 3.694 3.694 0 01-1.124 2.618 3.692 3.692 0 01-2.652 1.043 3.71 3.71 0 01-2.606-1.153 3.695 3.695 0 01-1.013-2.664 15.125 15.125 0 00-10.452-14.703 15.136 15.136 0 00-6.362-.646 22.52 22.52 0 01-17.7-5.746z" fill="#FFBE4D"/><path d="M27.57 632.634a22.52 22.52 0 01-7.342-17.099 15.127 15.127 0 00-4.914-11.498 15.129 15.129 0 00-11.9-3.851 22.509 22.509 0 01-17.693-5.755 22.517 22.517 0 01-7.335-17.108 15.123 15.123 0 00-4.914-11.497 15.146 15.146 0 00-11.9-3.852 3.696 3.696 0 01-4.088-3.261 3.698 3.698 0 013.261-4.089 22.527 22.527 0 0125.036 22.854 15.135 15.135 0 004.917 11.5 15.123 15.123 0 0011.897 3.849 22.53 22.53 0 0125.036 22.855 15.125 15.125 0 0016.813 15.348 22.524 22.524 0 0123.219 13.509 22.524 22.524 0 011.817 9.346 3.7 3.7 0 01-3.774 3.58 3.698 3.698 0 01-3.621-3.735 15.135 15.135 0 00-4.926-11.488 15.123 15.123 0 00-11.888-3.861 22.505 22.505 0 01-17.7-5.747z" fill="#FFBE4D"/><path d="M150.926 384.708a4.997 4.997 0 01-1.522-2.662 5.015 5.015 0 011.933-5.091l80.396-59.113a5.008 5.008 0 016.841.876c.538.658.9 1.442 1.052 2.278l14.475 79.722a5.008 5.008 0 01-1.455 4.485 5.012 5.012 0 01-4.554 1.297l-94.866-20.614a5.027 5.027 0 01-2.3-1.178zm80.28-54.011l-64.956 47.757 76.636 16.648-11.68-64.405zM-128.867 691.203a4.997 4.997 0 01-1.522-2.662 5.016 5.016 0 011.933-5.091l80.396-59.113a5.013 5.013 0 014.831-.623 5.025 5.025 0 013.075 3.763l14.463 79.736a5.024 5.024 0 01-6.006 5.8l-94.866-20.614a5.028 5.028 0 01-2.304-1.196zm80.28-54.011l-64.956 47.757 76.637 16.648-11.68-64.405z" fill="#FDBFBC"/><path d="M167.501 463.972l22.495-1.024c.434-.018.86-.122 1.253-.307a3.269 3.269 0 001.039-.766 3.28 3.28 0 00.857-2.377 3.307 3.307 0 00-3.452-3.152l-22.47 1.023L166.2 434.9a3.304 3.304 0 00-3.453-3.152 3.284 3.284 0 00-2.289 1.07 3.28 3.28 0 00-.86 2.38l1.011 22.483-22.47 1.023a3.276 3.276 0 00-2.291 1.073 3.281 3.281 0 00-.861 2.38 3.294 3.294 0 001.076 2.289 3.3 3.3 0 002.377.863l22.469-1.023 1.024 22.469a3.278 3.278 0 001.075 2.289 3.302 3.302 0 005.53-2.59l-1.037-22.482z" fill="#FFBE4D"/><path d="M120.691 290.029l-4.332-64.758 10.778-.719 4.329 64.756-10.775.721zm-1.046-61.884l3.92 58.598 4.61-.299-3.913-58.606-4.617.307z" fill="#BDEBE6"/><path d="M9.097 315.428c20.165-.919 35.768-18.011 34.85-38.176-.919-20.166-18.01-35.769-38.176-34.85-20.166.918-35.769 18.01-34.85 38.176.918 20.165 18.01 35.768 38.176 34.85z" fill="#E89C38"/><path d="M43.574 285.763a4.902 4.902 0 006.206 3.076 4.904 4.904 0 003.077-6.206 4.875 4.875 0 00-1.432-2.129 63.994 63.994 0 00-2.759-1.186 4.892 4.892 0 00-4.842 2.706 4.9 4.9 0 00-.25 3.739zM31.92 294.865a4.9 4.9 0 003.076-6.206 4.908 4.908 0 00-6.209-3.074 4.902 4.902 0 00-3.074 6.209 4.899 4.899 0 006.206 3.071zM14.056 300.889a4.9 4.9 0 00-3.133-9.285 4.9 4.9 0 00-.609 9.03 4.906 4.906 0 003.742.255zM-3.811 306.91a4.893 4.893 0 003.32-4.313 4.9 4.9 0 00-6.453-4.972 4.904 4.904 0 00-3.076 6.206 4.904 4.904 0 006.209 3.079zM35.48 275.916c.15-.048.296-.106.438-.172a65.376 65.376 0 00-5.037-.622 4.898 4.898 0 004.6.794zM11.402 278.86a4.907 4.907 0 006.207 3.077 4.904 4.904 0 003.073-6.209 5.018 5.018 0 00-.226-.547 60.947 60.947 0 00-9.285 1.575 4.847 4.847 0 00.221 2.105l.01-.001zM-6.464 284.882a4.905 4.905 0 006.206 3.076 4.907 4.907 0 003.077-6.206 4.882 4.882 0 00-1.099-1.814 61.468 61.468 0 00-8.346 4.37c.039.194.09.386.151.574h.01zM82.278 341.523a4.904 4.904 0 004.306 3.325c.47-3.24.678-6.513.62-9.786a4.902 4.902 0 00-4.926 6.461zM67.483 341.343a4.904 4.904 0 00-3.077 6.206 4.902 4.902 0 006.207 3.076 4.9 4.9 0 003.076-6.206 4.899 4.899 0 00-6.206-3.076zM49.615 347.364a4.904 4.904 0 00-3.076 6.206 4.902 4.902 0 006.206 3.076 4.9 4.9 0 003.077-6.206 4.905 4.905 0 00-6.207-3.076zM31.75 353.385a4.904 4.904 0 00-3.074 6.209 4.899 4.899 0 009.027.609 4.904 4.904 0 00.255-3.739 4.904 4.904 0 00-6.209-3.079zM13.883 359.411a4.91 4.91 0 00-2.824 2.466 4.903 4.903 0 00-.253 3.741 4.905 4.905 0 006.207 3.076 4.904 4.904 0 003.073-6.209 4.9 4.9 0 00-6.203-3.074zM-3.989 365.438a4.907 4.907 0 00-3.076 6.206 4.905 4.905 0 006.209 3.074 4.907 4.907 0 003.076-6.206 4.905 4.905 0 00-6.209-3.074zM71.041 322.396a4.9 4.9 0 00-3.076 6.206 4.905 4.905 0 006.206 3.076 4.9 4.9 0 003.077-6.206 4.905 4.905 0 00-6.207-3.076zM56.308 337.707a4.9 4.9 0 003.077-6.206 4.903 4.903 0 00-6.21-3.074 4.902 4.902 0 00-3.073 6.209 4.898 4.898 0 006.206 3.071zM38.443 343.731a4.9 4.9 0 00-3.132-9.285 4.897 4.897 0 00-3.077 6.206 4.904 4.904 0 006.21 3.079zM20.577 349.752a4.9 4.9 0 00-3.132-9.285 4.904 4.904 0 00-3.077 6.206 4.904 4.904 0 006.21 3.079zM-.423 346.483a4.904 4.904 0 00-3.076 6.206 4.899 4.899 0 009.285-3.133 4.903 4.903 0 00-6.209-3.073zM60.357 379.24a4.9 4.9 0 00-3.074 6.209c.31.925.89 1.736 1.666 2.327a61.034 61.034 0 007.541-5.671 4.902 4.902 0 00-6.133-2.865zM48.707 388.342a4.903 4.903 0 00-9.03-.607 4.902 4.902 0 003.98 7.06c.623-.188 1.243-.368 1.862-.574.62-.206 1.224-.446 1.831-.672a4.898 4.898 0 001.357-5.207zM24.626 391.285a4.89 4.89 0 00-3.135 5.997c3.142.227 6.296.211 9.436-.051a4.91 4.91 0 00-2.551-5.694 4.908 4.908 0 00-3.75-.252zM78.709 360.48a4.864 4.864 0 002.214 2.688 61.827 61.827 0 003.564-9.017 4.871 4.871 0 00-4.36 1.071 4.913 4.913 0 00-1.665 3.362c-.043.642.04 1.287.247 1.896zM63.92 360.292a4.906 4.906 0 00-3.075 6.207 4.903 4.903 0 006.208 3.073 4.9 4.9 0 003.074-6.208 4.902 4.902 0 00-6.206-3.072zM46.054 366.314a4.904 4.904 0 00-3.076 6.206 4.907 4.907 0 006.209 3.074 4.902 4.902 0 003.076-6.207 4.903 4.903 0 00-6.209-3.073zM28.188 372.335a4.9 4.9 0 00-.61 9.029 4.901 4.901 0 003.74.253 4.9 4.9 0 003.076-6.206 4.905 4.905 0 00-6.206-3.076zM10.321 378.356a4.905 4.905 0 00-3.074 6.209 4.902 4.902 0 006.207 3.076 4.903 4.903 0 003.076-6.206 4.904 4.904 0 00-6.209-3.079zM-7.543 384.38a4.882 4.882 0 00-2.223 1.541 61.541 61.541 0 008.295 5.018 4.874 4.874 0 00.137-3.48 4.903 4.903 0 00-6.21-3.079zM71.517 309.663a4.905 4.905 0 008.263 1.737c.56-.614.954-1.36 1.145-2.168a59.569 59.569 0 00-3.227-5.791 4.904 4.904 0 00-6.18 6.222zM59.872 318.76a4.9 4.9 0 00-3.132-9.285 4.904 4.904 0 00-3.074 6.209 4.902 4.902 0 006.206 3.076zM42 324.787a4.904 4.904 0 003.074-6.209 4.9 4.9 0 00-6.206-3.077 4.906 4.906 0 00-3.076 6.207A4.907 4.907 0 0042 324.787zM24.834 330.508a4.905 4.905 0 10-4.528-8.702 4.905 4.905 0 004.528 8.702zM6.27 336.826a4.9 4.9 0 003.076-6.206 4.905 4.905 0 00-6.206-3.076 4.9 4.9 0 00-3.074 6.208 4.899 4.899 0 006.204 3.074zM63.432 299.813a4.904 4.904 0 003.073-6.209 4.902 4.902 0 00-6.206-3.076 4.904 4.904 0 00-3.076 6.206 4.904 4.904 0 006.209 3.079zM45.565 305.834a4.904 4.904 0 003.076-6.206 4.908 4.908 0 00-6.206-3.077 4.902 4.902 0 00-3.077 6.207 4.905 4.905 0 006.207 3.076zM27.698 311.855a4.9 4.9 0 003.076-6.206 4.903 4.903 0 00-9.031-.607 4.902 4.902 0 00-.254 3.74 4.903 4.903 0 006.209 3.073zM9.836 317.881a4.9 4.9 0 003.077-6.206 4.903 4.903 0 00-6.209-3.074 4.903 4.903 0 00-3.071 6.201 4.9 4.9 0 004.308 3.324 4.876 4.876 0 001.895-.245z" fill="#FFBE4D"/><path d="M-28.036 457.876a4.803 4.803 0 01-1.57-3.586 35.04 35.04 0 0110.503-24.873A35.053 35.053 0 015.91 419.253a35.315 35.315 0 0135.04 35.518 4.805 4.805 0 01-3.008 4.417 4.811 4.811 0 01-6.61-4.503 25.519 25.519 0 00-7.39-18.176 25.5 25.5 0 00-18.097-7.64 25.497 25.497 0 00-18.197 7.393 25.523 25.523 0 00-7.638 18.093 4.805 4.805 0 01-3.008 4.417 4.811 4.811 0 01-1.843.349 4.778 4.778 0 01-3.196-1.245z" fill="#BDEBE6"/><path d="M12.56 113.822a4.794 4.794 0 013.76-1.074 35.033 35.033 0 0123.258 13.72 35.036 35.036 0 016.737 26.146 35.31 35.31 0 01-39.87 29.992 4.806 4.806 0 01-2.214-8.602 4.81 4.81 0 013.564-.918A25.491 25.491 0 0026.8 168.18a25.509 25.509 0 009.99-16.923 25.517 25.517 0 00-4.913-19.008 25.51 25.51 0 00-16.923-9.99 4.819 4.819 0 01-3.17-1.869 4.808 4.808 0 01-.921-3.563 4.811 4.811 0 011.696-3.005z" fill="#937AB9"/><path d="M54.869 602.731a22.536 22.536 0 01-7.335-17.108 15.114 15.114 0 00-4.914-11.498 15.141 15.141 0 00-5.533-3.213 15.14 15.14 0 00-6.367-.638 22.517 22.517 0 01-23.218-13.508 22.531 22.531 0 01-1.818-9.347A15.11 15.11 0 00.77 535.922a15.128 15.128 0 00-11.9-3.851 3.7 3.7 0 01-.827-7.351 22.547 22.547 0 0117.707 5.747 22.507 22.507 0 017.33 17.108 15.134 15.134 0 004.917 11.5 15.134 15.134 0 0011.896 3.848A22.533 22.533 0 0147.6 568.67a22.506 22.506 0 017.33 17.108 15.135 15.135 0 004.926 11.488 15.122 15.122 0 0011.888 3.861 22.513 22.513 0 0117.705 5.745 22.524 22.524 0 017.33 17.109 3.695 3.695 0 01-2.345 3.406 3.69 3.69 0 01-4.037-.897 3.693 3.693 0 01-1.013-2.664 15.123 15.123 0 00-16.813-15.349 22.52 22.52 0 01-17.701-5.746z" fill="#FFBE4D"/><path d="M41.216 617.687a22.541 22.541 0 01-7.335-17.108 15.126 15.126 0 00-4.914-11.498 15.143 15.143 0 00-11.9-3.851A22.52 22.52 0 01-6.15 571.722a22.531 22.531 0 01-1.818-9.347 15.123 15.123 0 00-4.914-11.497 15.13 15.13 0 00-11.9-3.851 3.7 3.7 0 01-.827-7.351A22.529 22.529 0 01-.573 562.531a15.133 15.133 0 004.917 11.5 15.135 15.135 0 0011.897 3.849 22.527 22.527 0 0123.22 13.509 22.52 22.52 0 011.816 9.345 15.133 15.133 0 004.925 11.488 15.122 15.122 0 0011.888 3.861 22.523 22.523 0 0125.036 22.855 3.694 3.694 0 01-1.124 2.618 3.692 3.692 0 01-2.652 1.043 3.71 3.71 0 01-2.606-1.153 3.695 3.695 0 01-1.013-2.664 15.125 15.125 0 00-10.452-14.703 15.136 15.136 0 00-6.362-.646 22.52 22.52 0 01-17.7-5.746z" fill="#FFBE4D"/><path d="M27.57 632.634a22.52 22.52 0 01-7.342-17.099 15.127 15.127 0 00-4.914-11.498 15.129 15.129 0 00-11.9-3.851 22.509 22.509 0 01-17.693-5.755 22.517 22.517 0 01-7.335-17.108 15.123 15.123 0 00-4.914-11.497 15.146 15.146 0 00-11.9-3.852 3.696 3.696 0 01-4.088-3.261 3.698 3.698 0 013.261-4.089 22.527 22.527 0 0125.036 22.854 15.135 15.135 0 004.917 11.5 15.123 15.123 0 0011.897 3.849 22.53 22.53 0 0125.036 22.855 15.125 15.125 0 0016.813 15.348 22.524 22.524 0 0123.219 13.509 22.524 22.524 0 011.817 9.346 3.7 3.7 0 01-3.774 3.58 3.698 3.698 0 01-3.621-3.735 15.135 15.135 0 00-4.926-11.488 15.123 15.123 0 00-11.888-3.861 22.505 22.505 0 01-17.7-5.747z" fill="#FFBE4D"/><path d="M89.93 497.142l-25.464 9.393 9.393 25.464 25.464-9.393-9.393-25.464z" fill="#937AB9"/><path d="M150.926 384.708a4.997 4.997 0 01-1.522-2.662 5.015 5.015 0 011.933-5.091l80.396-59.113a5.008 5.008 0 016.841.876c.538.658.9 1.442 1.052 2.278l14.475 79.722a5.008 5.008 0 01-1.455 4.485 5.012 5.012 0 01-4.554 1.297l-94.866-20.614a5.027 5.027 0 01-2.3-1.178zm80.28-54.011l-64.956 47.757 76.636 16.648-11.68-64.405z" fill="#FDBFBC"/><path d="M120.691 290.029l-4.332-64.758 10.778-.719 4.329 64.756-10.775.721zm-1.046-61.884l3.92 58.598 4.61-.299-3.913-58.606-4.617.307z" fill="#BDEBE6"/><path d="M12.56 113.822a4.794 4.794 0 013.76-1.074 35.033 35.033 0 0123.258 13.72 35.036 35.036 0 016.737 26.146 35.31 35.31 0 01-39.87 29.992 4.806 4.806 0 01-2.214-8.602 4.81 4.81 0 013.564-.918A25.491 25.491 0 0026.8 168.18a25.509 25.509 0 009.99-16.923 25.517 25.517 0 00-4.913-19.008 25.51 25.51 0 00-16.923-9.99 4.819 4.819 0 01-3.17-1.869 4.808 4.808 0 01-.921-3.563 4.811 4.811 0 011.696-3.005z" fill="#937AB9"/></svg>