<svg width="371" height="768" fill="none" xmlns="http://www.w3.org/2000/svg"><path d="M361.121 561.595l-16.803-51.514 8.561-2.179 16.8 51.512-8.558 2.181zm-13.558-49.687l15.206 46.614 3.663-.926-15.201-46.621-3.668.933z" fill="#BDEBE6"/><path d="M240.615 438.517c.328-.427.75-.775 1.237-1.021a3.838 3.838 0 011.588-.406 30.536 30.536 0 0111.471 1.722 31.972 31.972 0 0110.203 5.896 31.73 31.73 0 017.407 9.122c1.862 3.453 3.031 7.19 3.439 10.994.839 7.676-1.441 15.163-6.339 20.818-4.899 5.655-12.016 9.016-19.79 9.345a4.303 4.303 0 01-2.952-1.04 4.234 4.234 0 01-1.478-2.74 3.787 3.787 0 01.137-1.523 3.621 3.621 0 011.928-2.225 3.896 3.896 0 011.497-.364 20.563 20.563 0 007.985-1.932 19.314 19.314 0 006.406-4.86 19.17 19.17 0 003.883-7.023 20.174 20.174 0 00.726-8.134 21.79 21.79 0 00-2.51-7.991 23.11 23.11 0 00-5.388-6.631 23.32 23.32 0 00-7.424-4.292 22.256 22.256 0 00-8.348-1.257 4.187 4.187 0 01-1.562-.236 4.394 4.394 0 01-2.4-2.045 4.116 4.116 0 01-.472-1.497 3.7 3.7 0 01.756-2.68z" fill="#937AB9"/><path d="M104.495 459.417a4.552 4.552 0 01-1.782-1.923 4.179 4.179 0 01-.408-2.319 3.792 3.792 0 01.926-2.082l52.983-59.725a3.835 3.835 0 011.699-1.105 4.208 4.208 0 012.088-.118 4.549 4.549 0 011.945.899 4.549 4.549 0 011.323 1.683l28.145 62.256c.286.634.414 1.318.37 1.99a3.826 3.826 0 01-.619 1.864 3.77 3.77 0 01-1.462 1.301 4.066 4.066 0 01-1.962.425l-81.133-2.523a4.468 4.468 0 01-2.113-.623zm53.935-55.589l-42.804 48.255 65.541 2.034-22.737-50.289z" fill="#FDBFBC"/><path d="M334.413 305.129l-35.429-6.688 39.359-20.33-3.93 27.018zM361.121 561.595l-16.803-51.514 8.561-2.179 16.8 51.512-8.558 2.181zm-13.558-49.687l15.206 46.614 3.663-.926-15.201-46.621-3.668.933z" fill="#BDEBE6"/><path d="M382.036 511.146c1.864-2.905.881-6.91-2.196-8.946-3.077-2.035-7.082-1.331-8.946 1.574-1.864 2.904-.881 6.909 2.196 8.945 3.077 2.036 7.082 1.332 8.946-1.573z" fill="#E89C38"/><path d="M240.615 438.517c.328-.427.75-.775 1.237-1.021a3.838 3.838 0 011.588-.406 30.536 30.536 0 0111.471 1.722 31.972 31.972 0 0110.203 5.896 31.73 31.73 0 017.407 9.122c1.862 3.453 3.031 7.19 3.439 10.994.839 7.676-1.441 15.163-6.339 20.818-4.899 5.655-12.016 9.016-19.79 9.345a4.303 4.303 0 01-2.952-1.04 4.234 4.234 0 01-1.478-2.74 3.787 3.787 0 01.137-1.523 3.621 3.621 0 011.928-2.225 3.896 3.896 0 011.497-.364 20.563 20.563 0 007.985-1.932 19.314 19.314 0 006.406-4.86 19.17 19.17 0 003.883-7.023 20.174 20.174 0 00.726-8.134 21.79 21.79 0 00-2.51-7.991 23.11 23.11 0 00-5.388-6.631 23.32 23.32 0 00-7.424-4.292 22.256 22.256 0 00-8.348-1.257 4.187 4.187 0 01-1.562-.236 4.394 4.394 0 01-2.4-2.045 4.116 4.116 0 01-.472-1.497 3.7 3.7 0 01.756-2.68z" fill="#937AB9"/><path d="M291.062 653.166c-10.734 11.61-9.023 30.724 3.822 42.692 12.844 11.969 31.958 12.26 42.691.65 10.734-11.609 9.023-30.723-3.821-42.692-12.844-11.968-31.958-12.259-42.692-.65z" fill="#E89C38"/><path d="M288.751 691.727c-.936-.544-1.998-.689-2.953-.403-.954.286-1.723.979-2.138 1.928-.413.95-.437 2.076-.068 3.131a4.692 4.692 0 002.037 2.501 3.883 3.883 0 001.999.543 43.1 43.1 0 002.157-.792c.401-.342.722-.777.94-1.279.412-.95.436-2.076.066-3.131a4.691 4.691 0 00-2.04-2.498zM290.718 679.365c-.413.949-.437 2.075-.068 3.131a4.698 4.698 0 002.036 2.501c.937.542 1.999.686 2.953.4.955-.287 1.723-.98 2.138-1.929.413-.949.438-2.076.068-3.132a4.698 4.698 0 00-2.039-2.5c-.936-.543-1.998-.688-2.952-.401-.954.286-1.723.981-2.136 1.93zM297.779 665.477c-.413.949-.437 2.076-.068 3.132a4.7 4.7 0 002.04 2.5c.463.269.963.444 1.469.513.507.07 1.011.032 1.484-.109a3.318 3.318 0 001.272-.716 3.54 3.54 0 00.866-1.214c.413-.949.438-2.075.069-3.131a4.694 4.694 0 00-2.038-2.501c-.936-.544-1.999-.689-2.954-.403-.955.286-1.725.98-2.14 1.929zM304.844 651.589c-.205.47-.317.989-.329 1.526a4.54 4.54 0 00.26 1.606c.183.524.457 1.013.807 1.442.35.429.769.789 1.233 1.058.936.544 1.998.689 2.953.403.955-.286 1.724-.98 2.138-1.928.413-.95.437-2.076.068-3.132a4.693 4.693 0 00-2.037-2.5c-.936-.544-1.999-.689-2.954-.404-.955.286-1.724.98-2.139 1.929zM311.908 637.699c-.413.949-.438 2.075-.069 3.131a4.698 4.698 0 002.037 2.5c.936.543 1.998.688 2.952.402.954-.286 1.723-.979 2.138-1.927a4.01 4.01 0 00.328-1.634 57.759 57.759 0 00-.731-2.473 4.597 4.597 0 00-1.577-1.531c-.936-.539-1.995-.68-2.946-.393-.952.287-1.718.979-2.132 1.925zM299.597 692.775a2.705 2.705 0 00-.135.355 45.274 45.274 0 003.085-2.439 3.404 3.404 0 00-1.765.614 3.51 3.51 0 00-1.185 1.47zM311.716 677.221c-.933-.543-1.992-.687-2.943-.402-.951.286-1.718.978-2.132 1.925-.411.949-.435 2.074-.066 3.128a4.692 4.692 0 002.031 2.498c.143.081.289.154.438.218a44.37 44.37 0 004.014-6.171 4.487 4.487 0 00-1.337-1.202l-.005.006zM318.728 663.363c-.925-.541-1.973-.685-2.916-.4-.943.285-1.703.975-2.113 1.919-.407.946-.432 2.067-.067 3.119s1.088 1.947 2.012 2.491a3.904 3.904 0 001.619.529 50.09 50.09 0 001.88-7.388 4.374 4.374 0 00-.409-.276l-.006.006zM320.837 655.029a63.814 63.814 0 00-.106-4.193 4.81 4.81 0 00-.138.328 4.689 4.689 0 00-.265 1.92 5.22 5.22 0 00.509 1.945zM233.71 681.172a3.85 3.85 0 00-2.212-.537 3.321 3.321 0 00-1.993.844 58.424 58.424 0 005.332 6.507c.353-.325.636-.727.833-1.185.205-.47.317-.988.329-1.525a4.581 4.581 0 00-.257-1.605 4.772 4.772 0 00-.804-1.441 4.53 4.53 0 00-1.228-1.058zM242.687 672.935c.412-.95.437-2.076.068-3.131a4.7 4.7 0 00-2.037-2.501c-.936-.543-1.998-.688-2.952-.402-.954.286-1.723.979-2.139 1.927-.412.95-.437 2.076-.068 3.131a4.7 4.7 0 002.037 2.501c.936.544 1.998.689 2.953.403.954-.286 1.723-.979 2.138-1.928zM249.751 659.047c.413-.95.437-2.076.068-3.131a4.695 4.695 0 00-2.036-2.501c-.937-.543-1.998-.688-2.953-.402-.954.286-1.723.979-2.138 1.927-.413.949-.437 2.076-.068 3.131a4.698 4.698 0 002.036 2.501c.937.543 1.998.688 2.953.402.954-.286 1.723-.979 2.138-1.927zM256.815 645.159c.413-.95.437-2.076.067-3.132a4.7 4.7 0 00-2.038-2.5c-.936-.544-1.998-.689-2.953-.403-.955.286-1.724.98-2.138 1.928-.413.95-.437 2.076-.068 3.132a4.696 4.696 0 002.036 2.5c.937.544 2 .689 2.955.403.955-.286 1.724-.979 2.139-1.928zM263.876 631.268c.205-.47.317-.988.329-1.525a4.59 4.59 0 00-.258-1.607 4.786 4.786 0 00-.807-1.442 4.562 4.562 0 00-1.232-1.058c-.937-.543-1.998-.687-2.953-.401-.954.286-1.723.978-2.138 1.926-.413.95-.437 2.077-.067 3.133a4.708 4.708 0 002.038 2.5c.936.543 1.997.687 2.951.401.954-.286 1.723-.979 2.137-1.927zM270.94 617.374c.413-.949.437-2.075.068-3.131a4.696 4.696 0 00-2.037-2.501c-.936-.542-1.998-.686-2.952-.4-.955.287-1.723.98-2.138 1.929-.413.949-.437 2.075-.068 3.131a4.698 4.698 0 002.036 2.501c.937.543 1.999.687 2.953.4.955-.286 1.723-.98 2.138-1.929zM272.78 605.009c.957.552 2.043.7 3.018.409.976-.29 1.762-.994 2.186-1.957.204-.464.317-.976.332-1.507a47.714 47.714 0 00-7.891-1.107 4.706 4.706 0 00.618 2.396 4.735 4.735 0 001.737 1.766zM251.545 686.178c.413-.95.438-2.076.069-3.132a4.691 4.691 0 00-2.038-2.5c-.936-.544-1.998-.688-2.952-.402-.955.286-1.724.979-2.139 1.927-.413.949-.437 2.075-.068 3.131a4.696 4.696 0 002.037 2.501c.936.543 1.998.687 2.952.401.954-.285 1.723-.978 2.139-1.926zM251.543 668.18c-.413.95-.437 2.076-.068 3.132a4.696 4.696 0 002.036 2.5c.937.543 1.999.687 2.953.401.955-.287 1.723-.981 2.138-1.929.413-.95.438-2.076.068-3.132a4.694 4.694 0 00-2.039-2.5c-.937-.544-1.998-.688-2.952-.401-.954.286-1.723.98-2.136 1.929zM258.604 654.292c-.413.95-.437 2.077-.068 3.133a4.689 4.689 0 002.04 2.499c.463.27.962.445 1.469.514a3.506 3.506 0 001.484-.11 3.292 3.292 0 001.271-.715c.367-.332.661-.744.866-1.214.414-.949.439-2.075.07-3.132a4.691 4.691 0 00-2.038-2.5c-.937-.544-1.999-.689-2.954-.403-.955.286-1.725.979-2.14 1.928zM265.669 640.405c-.414.949-.438 2.076-.068 3.132a4.693 4.693 0 002.039 2.5c.936.544 1.998.688 2.953.402.954-.285 1.723-.979 2.138-1.928.412-.949.437-2.075.068-3.131a4.7 4.7 0 00-2.037-2.501c-.936-.544-1.999-.689-2.954-.403-.955.286-1.724.98-2.139 1.929zM279.799 630.626c.412-.949.437-2.075.068-3.131a4.7 4.7 0 00-2.037-2.501c-.936-.544-1.999-.688-2.953-.401-.955.286-1.724.98-2.138 1.929-.413.95-.438 2.076-.069 3.132a4.691 4.691 0 002.038 2.5c.937.543 1.999.687 2.953.401.954-.287 1.723-.98 2.138-1.929zM286.847 616.739c.412-.95.436-2.076.067-3.132a4.698 4.698 0 00-2.039-2.5c-.936-.544-1.998-.689-2.952-.403-.955.286-1.724.98-2.138 1.928-.413.95-.438 2.076-.069 3.132a4.702 4.702 0 002.037 2.5c.937.545 1.999.69 2.954.404.955-.286 1.725-.98 2.14-1.929zM224.986 646.375c.406-.945.43-2.065.067-3.116-.363-1.05-1.084-1.945-2.003-2.486-.69-.409-1.456-.596-2.199-.535a52.877 52.877 0 00-.706 7.746c.91.483 1.92.585 2.822.285.902-.299 1.625-.978 2.019-1.894zM226.939 634.084c.937.543 1.999.686 2.953.4.954-.287 1.723-.98 2.138-1.929.413-.949.438-2.075.069-3.131a4.694 4.694 0 00-2.038-2.501 3.878 3.878 0 00-2.195-.541 3.35 3.35 0 00-1.989.812c-.222.466-.447.926-.657 1.402-.209.475-.392.964-.584 1.446-.005.8.21 1.61.619 2.328a4.633 4.633 0 001.684 1.714zM239.099 618.651c.402-.922.437-2.012.099-3.043a4.71 4.71 0 00-1.916-2.492 42.353 42.353 0 00-4.999 5.302 4.636 4.636 0 001.708 1.762c.465.271.966.446 1.475.516a3.53 3.53 0 001.489-.11 3.314 3.314 0 001.275-.718c.368-.332.664-.746.869-1.217zM224.885 667.889c-.843-.502-1.794-.664-2.672-.456a60.29 60.29 0 003.26 7.625 3.397 3.397 0 001.335-1.572c.2-.467.309-.983.321-1.517a4.644 4.644 0 00-.253-1.596 4.774 4.774 0 00-.788-1.433 4.433 4.433 0 00-1.203-1.051zM233.829 659.689c.413-.95.437-2.076.068-3.132a4.692 4.692 0 00-2.036-2.5c-.937-.543-1.999-.687-2.953-.401-.954.287-1.723.98-2.138 1.929-.413.949-.437 2.076-.068 3.132a4.7 4.7 0 002.04 2.5c.936.543 1.997.686 2.951.4.954-.287 1.722-.98 2.136-1.928zM240.893 645.801c.413-.949.437-2.075.068-3.131a4.698 4.698 0 00-2.036-2.501c-.937-.543-1.999-.687-2.953-.4-.955.286-1.723.98-2.138 1.928-.413.95-.438 2.076-.069 3.132a4.694 4.694 0 002.037 2.5c.937.543 1.999.687 2.953.401.955-.287 1.723-.98 2.138-1.929zM247.958 631.913c.413-.95.437-2.076.068-3.131a4.692 4.692 0 00-2.037-2.501c-.936-.544-1.998-.689-2.952-.403-.955.286-1.724.979-2.138 1.928-.413.949-.438 2.076-.069 3.131a4.705 4.705 0 002.037 2.501c.936.543 1.998.688 2.952.402.955-.286 1.724-.979 2.139-1.927zM255.022 618.025c.412-.95.436-2.076.067-3.132a4.7 4.7 0 00-2.038-2.5c-.937-.544-1.999-.689-2.953-.403-.955.286-1.724.98-2.138 1.928-.414.95-.439 2.076-.07 3.132a4.691 4.691 0 002.038 2.5c.937.544 1.999.689 2.954.403.955-.285 1.725-.979 2.14-1.928zM262.068 604.095a4.19 4.19 0 00.295-2.249c-2.554.281-5.061.78-7.498 1.491a4.74 4.74 0 001.993 2.308c.958.553 2.045.701 3.022.41.977-.29 1.764-.995 2.188-1.96zM258.445 693.78c-.939-.543-2.003-.687-2.959-.401-.957.287-1.727.981-2.143 1.931a4.113 4.113 0 00-.317 1.992c.059.7.283 1.391.652 2.008a49.004 49.004 0 005.093 1.852 3.415 3.415 0 001.649-1.745c.414-.951.438-2.078.067-3.135a4.703 4.703 0 00-2.042-2.502zM260.397 681.426c-.413.95-.437 2.077-.068 3.133a4.7 4.7 0 002.04 2.5c.936.543 1.998.687 2.952.401.954-.286 1.723-.979 2.139-1.927.412-.949.436-2.076.066-3.132a4.691 4.691 0 00-2.038-2.5c-.936-.544-1.998-.689-2.953-.403-.954.286-1.723.98-2.138 1.928zM267.462 667.532c-.412.95-.436 2.076-.067 3.132a4.7 4.7 0 002.038 2.5c.937.544 1.999.689 2.953.403.955-.286 1.724-.979 2.138-1.928.413-.949.437-2.076.068-3.131a4.698 4.698 0 00-2.036-2.501c-.937-.544-1.999-.689-2.954-.403-.955.286-1.725.979-2.14 1.928zM274.029 654.287c-.597 2.04.724 4.329 2.95 5.112 2.227.783 4.515-.237 5.112-2.277.597-2.04-.724-4.329-2.951-5.112-2.226-.783-4.515.237-5.111 2.277zM281.59 639.76c-.412.949-.437 2.075-.068 3.131a4.696 4.696 0 002.037 2.501c.936.543 1.998.687 2.952.401.954-.286 1.723-.978 2.138-1.926.414-.95.438-2.077.068-3.133a4.693 4.693 0 00-2.039-2.5c-.936-.543-1.997-.687-2.951-.401-.954.286-1.722.979-2.137 1.927zM290.76 623.906c-2.035.601-3.047 2.889-2.26 5.109.787 2.221 3.074 3.534 5.109 2.933 2.035-.602 3.047-2.889 2.261-5.11-.787-2.22-3.074-3.533-5.11-2.932zM295.722 611.983c-.412.95-.436 2.077-.067 3.133a4.708 4.708 0 002.038 2.5c.937.543 1.999.688 2.954.401.954-.286 1.723-.981 2.137-1.93.34-.776.419-1.677.227-2.566a56.432 56.432 0 00-4.308-3.611 3.356 3.356 0 00-1.783.594 3.477 3.477 0 00-1.198 1.479zM269.255 694.669c-.413.95-.437 2.077-.067 3.132a4.691 4.691 0 002.038 2.5c.936.544 1.998.689 2.953.403.954-.286 1.723-.979 2.138-1.928.413-.949.437-2.075.068-3.131a4.696 4.696 0 00-2.037-2.501c-.936-.544-1.999-.689-2.954-.403-.955.286-1.724.979-2.139 1.928zM276.319 680.781c-.412.95-.437 2.076-.068 3.132a4.698 4.698 0 002.037 2.5c.936.543 1.998.687 2.952.401.954-.286 1.723-.978 2.139-1.926.413-.949.438-2.075.069-3.131a4.69 4.69 0 00-2.038-2.501c-.936-.543-1.998-.687-2.952-.402-.954.286-1.723.979-2.139 1.927zM283.384 666.893c-.413.95-.438 2.076-.069 3.132a4.699 4.699 0 002.037 2.5c.937.543 1.999.687 2.953.401.954-.287 1.723-.98 2.138-1.929.413-.949.438-2.075.069-3.131a4.694 4.694 0 00-2.038-2.501c-.936-.543-1.998-.687-2.953-.4-.954.286-1.723.98-2.137 1.928zM290.442 653.006c-.413.949-.438 2.076-.069 3.131a4.7 4.7 0 002.037 2.501c.937.543 1.999.687 2.953.4.954-.286 1.723-.98 2.138-1.928.411-.949.435-2.074.066-3.128a4.688 4.688 0 00-2.034-2.498 4.002 4.002 0 00-1.47-.514 3.502 3.502 0 00-1.483.108 3.318 3.318 0 00-1.272.716c-.367.33-.661.742-.866 1.212zM297.509 639.118c-.413.949-.438 2.076-.068 3.132a4.695 4.695 0 002.04 2.5c.936.544 1.998.689 2.952.403.955-.286 1.724-.98 2.138-1.928.413-.95.437-2.076.068-3.132a4.696 4.696 0 00-2.036-2.5c-.937-.544-1.999-.689-2.954-.404-.955.286-1.725.98-2.14 1.929zM304.573 625.236c-.413.95-.438 2.076-.069 3.132a4.691 4.691 0 002.038 2.5c.936.544 1.998.688 2.952.402.954-.286 1.723-.979 2.138-1.927.413-.949.438-2.075.069-3.131a4.7 4.7 0 00-2.037-2.501c-.936-.543-1.998-.687-2.952-.402-.955.286-1.724.979-2.139 1.927z" fill="#FFBE4D"/><path d="M229.761 548.955c.53.008 1.064.136 1.568.374.504.239.966.584 1.356 1.012a34.186 34.186 0 016.379 10.055c1.524 3.702 2.373 7.615 2.498 11.512.146 3.899-.435 7.708-1.709 11.209-1.274 3.5-3.216 6.621-5.712 9.183-5.03 5.18-11.999 7.791-19.377 7.259-7.378-.532-14.563-4.163-19.979-10.096a4.693 4.693 0 01-.866-1.373 4.55 4.55 0 01-.339-1.569 4.068 4.068 0 01.238-1.526c.175-.477.44-.902.78-1.251.34-.349.748-.616 1.202-.785a3.397 3.397 0 011.442-.2c.498.037.994.178 1.461.416.467.237.895.566 1.26.968 1.945 2.141 4.229 3.892 6.721 5.152 2.492 1.26 5.143 2.004 7.799 2.189 2.66.2 5.275-.165 7.694-1.073a17.305 17.305 0 006.401-4.216c1.816-1.864 3.229-4.134 4.156-6.681.927-2.546 1.35-5.317 1.244-8.153a24.113 24.113 0 00-1.819-8.373 24.934 24.934 0 00-4.639-7.314 4.693 4.693 0 01-.866-1.373 4.528 4.528 0 01-.339-1.569 4.029 4.029 0 01.238-1.526c.175-.477.439-.902.779-1.251a3.27 3.27 0 012.429-1z" fill="#BDEBE6"/><path d="M140.332 593.73l8.671-19.436-21.2-10.435-8.671 19.436 21.2 10.435z" fill="#937AB9"/><path d="M237.399 357.052a20.056 20.056 0 01-5.922-5.253 18.938 18.938 0 01-3.318-7.02 12.689 12.689 0 00-2.221-4.719 13.46 13.46 0 00-3.976-3.532 13.353 13.353 0 00-5.022-1.708 12.424 12.424 0 00-5.162.417 18.51 18.51 0 01-7.683.613 19.856 19.856 0 01-7.47-2.548 20.032 20.032 0 01-5.923-5.253 18.913 18.913 0 01-3.317-7.02 12.698 12.698 0 00-2.222-4.719 13.448 13.448 0 00-3.976-3.532 13.354 13.354 0 00-5.021-1.708 12.46 12.46 0 00-5.163.417 3.141 3.141 0 01-2.308-.22 3.249 3.249 0 01-1.581-1.733 2.824 2.824 0 01.073-2.232 2.72 2.72 0 011.684-1.422 18.52 18.52 0 017.685-.613 20.049 20.049 0 0113.395 7.8 18.908 18.908 0 013.313 7.021 12.718 12.718 0 002.224 4.719 13.464 13.464 0 003.976 3.533 13.335 13.335 0 005.021 1.707c1.756.223 3.515.08 5.161-.417a18.503 18.503 0 017.685-.614 19.87 19.87 0 017.472 2.547 20.031 20.031 0 015.922 5.254 18.91 18.91 0 013.314 7.021 12.699 12.699 0 002.224 4.718 13.467 13.467 0 003.976 3.534 13.365 13.365 0 005.02 1.707c1.756.222 3.516.08 5.162-.418a18.535 18.535 0 017.685-.614 19.877 19.877 0 017.472 2.548 20.028 20.028 0 015.922 5.253 18.91 18.91 0 013.314 7.021c.18.767.044 1.552-.379 2.183a2.773 2.773 0 01-1.879 1.179 3.21 3.21 0 01-2.279-.514 3.197 3.197 0 01-1.343-1.907 12.692 12.692 0 00-2.221-4.718 13.447 13.447 0 00-3.976-3.532 13.355 13.355 0 00-5.022-1.709 12.446 12.446 0 00-5.163.418c-2.45.737-5.069.946-7.683.613a19.885 19.885 0 01-7.47-2.548zM229.032 371.545a20.044 20.044 0 01-5.923-5.253 18.944 18.944 0 01-3.317-7.02 12.71 12.71 0 00-2.222-4.718 13.464 13.464 0 00-3.976-3.533 13.352 13.352 0 00-5.021-1.707 12.444 12.444 0 00-5.163.416c-2.45.738-5.069.947-7.683.613a19.866 19.866 0 01-7.47-2.547 20.061 20.061 0 01-5.923-5.254 18.937 18.937 0 01-3.317-7.02 12.694 12.694 0 00-2.222-4.718 13.457 13.457 0 00-3.975-3.532 13.353 13.353 0 00-5.022-1.708 12.44 12.44 0 00-5.162.417 3.149 3.149 0 01-2.309-.22 3.254 3.254 0 01-1.581-1.734 2.821 2.821 0 01.074-2.231 2.72 2.72 0 011.684-1.423 18.55 18.55 0 017.684-.612 19.895 19.895 0 017.472 2.548 20.065 20.065 0 015.921 5.253 18.93 18.93 0 013.316 7.019 12.709 12.709 0 002.223 4.719 13.48 13.48 0 003.977 3.533 13.344 13.344 0 005.02 1.708c1.756.222 3.516.08 5.161-.418a18.536 18.536 0 017.685-.612 19.884 19.884 0 017.471 2.548 20.028 20.028 0 015.922 5.253 18.912 18.912 0 013.315 7.019 12.734 12.734 0 002.224 4.719 13.455 13.455 0 003.977 3.533 13.324 13.324 0 005.02 1.707c1.756.223 3.516.08 5.161-.417a18.52 18.52 0 017.685-.612 19.867 19.867 0 017.471 2.548 20.039 20.039 0 015.922 5.252 18.927 18.927 0 013.315 7.019 2.758 2.758 0 01-.379 2.183 2.773 2.773 0 01-1.879 1.18 3.213 3.213 0 01-2.278-.515 3.198 3.198 0 01-1.343-1.906 12.73 12.73 0 00-2.222-4.719 13.46 13.46 0 00-3.976-3.532 13.354 13.354 0 00-5.021-1.708 12.46 12.46 0 00-5.163.417c-2.45.737-5.07.946-7.683.613a19.856 19.856 0 01-7.47-2.548zM220.668 386.031a20.032 20.032 0 01-5.923-5.253 18.92 18.92 0 01-3.317-7.02 12.691 12.691 0 00-2.222-4.719 13.457 13.457 0 00-3.975-3.532 13.353 13.353 0 00-5.022-1.708 12.464 12.464 0 00-5.163.417c-2.45.738-5.069.948-7.683.614a19.87 19.87 0 01-7.47-2.549 20.032 20.032 0 01-5.923-5.253 18.903 18.903 0 01-3.316-7.02 12.712 12.712 0 00-2.223-4.718 13.46 13.46 0 00-3.975-3.533 13.351 13.351 0 00-5.022-1.707 12.44 12.44 0 00-5.162.416 3.144 3.144 0 01-2.309-.22 3.247 3.247 0 01-1.58-1.733 2.82 2.82 0 01.073-2.232 2.718 2.718 0 011.684-1.422 18.536 18.536 0 017.685-.612 19.89 19.89 0 017.471 2.548 20.053 20.053 0 015.922 5.253 18.912 18.912 0 013.315 7.019 12.703 12.703 0 002.224 4.719 13.464 13.464 0 003.976 3.533 13.33 13.33 0 005.02 1.707c1.756.222 3.516.08 5.162-.418a18.53 18.53 0 017.684-.611 19.867 19.867 0 017.471 2.548 20.039 20.039 0 015.922 5.252 18.93 18.93 0 013.316 7.019 12.709 12.709 0 002.223 4.719 13.497 13.497 0 003.977 3.534 13.36 13.36 0 005.02 1.707c1.756.222 3.516.08 5.161-.418a18.536 18.536 0 017.685-.612 19.884 19.884 0 017.471 2.548 20.028 20.028 0 015.922 5.253 18.912 18.912 0 013.315 7.019 2.755 2.755 0 01-.379 2.182 2.77 2.77 0 01-1.878 1.18c-.78.125-1.6-.06-2.279-.514a3.197 3.197 0 01-1.343-1.907 12.71 12.71 0 00-2.222-4.718 13.478 13.478 0 00-3.976-3.533 13.37 13.37 0 00-5.021-1.707 12.444 12.444 0 00-5.163.416c-2.45.739-5.07.948-7.683.614a19.838 19.838 0 01-7.47-2.548z" fill="#FFBE4D"/><path d="M386.256 377.685l-74.557 3.152 7.958 79.363 74.557-3.152-7.958-79.363zM275.977 162.402a4.54 4.54 0 01-1.782-1.923 4.169 4.169 0 01-.408-2.319c.091-.78.413-1.503.926-2.082l52.983-59.724a3.83 3.83 0 011.697-1.096 4.205 4.205 0 012.082-.114 4.552 4.552 0 011.945.898 4.542 4.542 0 011.323 1.684l28.152 62.242a4.17 4.17 0 01.37 1.99 3.83 3.83 0 01-.619 1.865 3.77 3.77 0 01-1.462 1.3 4.077 4.077 0 01-1.961.426l-81.133-2.523a4.474 4.474 0 01-2.113-.624zm53.935-55.588l-42.804 48.254 65.541 2.034-22.737-50.288zM104.495 459.417a4.552 4.552 0 01-1.782-1.923 4.179 4.179 0 01-.408-2.319 3.792 3.792 0 01.926-2.082l52.983-59.725a3.835 3.835 0 011.699-1.105 4.208 4.208 0 012.088-.118 4.549 4.549 0 011.945.899 4.549 4.549 0 011.323 1.683l28.145 62.256c.286.634.414 1.318.37 1.99a3.826 3.826 0 01-.619 1.864 3.77 3.77 0 01-1.462 1.301 4.066 4.066 0 01-1.962.425l-81.133-2.523a4.468 4.468 0 01-2.113-.623zm53.935-55.589l-42.804 48.255 65.541 2.034-22.737-50.289z" fill="#FDBFBC"/><path d="M303.397 225.444l17.976-4.168c.347-.08.67-.227.951-.434.28-.207.511-.469.681-.772.172-.301.278-.637.313-.987a2.658 2.658 0 00-.108-1.056 2.972 2.972 0 00-1.339-1.686 2.876 2.876 0 00-2.1-.341l-17.955 4.163-5.446-17.955a2.976 2.976 0 00-1.339-1.686 2.876 2.876 0 00-2.1-.341 2.56 2.56 0 00-.95.432 2.49 2.49 0 00-.995 1.76c-.035.351.001.71.108 1.057l5.438 17.967-17.955 4.164c-.347.079-.67.226-.95.433a2.505 2.505 0 00-.995 1.761c-.036.351.001.71.107 1.056.104.347.277.674.507.963.23.289.513.535.833.722.319.189.668.316 1.028.375.361.059.724.048 1.071-.032l17.955-4.164 5.446 17.955c.104.347.277.674.507.963.23.289.513.535.833.722a2.93 2.93 0 001.028.375c.361.059.724.048 1.071-.033.347-.079.67-.227.95-.433a2.49 2.49 0 00.996-1.761 2.683 2.683 0 00-.108-1.057l-5.459-17.962zM237.399 357.052a20.056 20.056 0 01-5.922-5.253 18.938 18.938 0 01-3.318-7.02 12.689 12.689 0 00-2.221-4.719 13.46 13.46 0 00-3.976-3.532 13.353 13.353 0 00-5.022-1.708 12.424 12.424 0 00-5.162.417 18.51 18.51 0 01-7.683.613 19.856 19.856 0 01-7.47-2.548 20.032 20.032 0 01-5.923-5.253 18.913 18.913 0 01-3.317-7.02 12.698 12.698 0 00-2.222-4.719 13.448 13.448 0 00-3.976-3.532 13.354 13.354 0 00-5.021-1.708 12.46 12.46 0 00-5.163.417 3.141 3.141 0 01-2.308-.22 3.249 3.249 0 01-1.581-1.733 2.824 2.824 0 01.073-2.232 2.72 2.72 0 011.684-1.422 18.52 18.52 0 017.685-.613 20.049 20.049 0 0113.395 7.8 18.908 18.908 0 013.313 7.021 12.718 12.718 0 002.224 4.719 13.464 13.464 0 003.976 3.533 13.335 13.335 0 005.021 1.707c1.756.223 3.515.08 5.161-.417a18.503 18.503 0 017.685-.614 19.87 19.87 0 017.472 2.547 20.031 20.031 0 015.922 5.254 18.91 18.91 0 013.314 7.021 12.699 12.699 0 002.224 4.718 13.467 13.467 0 003.976 3.534 13.365 13.365 0 005.02 1.707c1.756.222 3.516.08 5.162-.418a18.535 18.535 0 017.685-.614 19.877 19.877 0 017.472 2.548 20.028 20.028 0 015.922 5.253 18.91 18.91 0 013.314 7.021c.18.767.044 1.552-.379 2.183a2.773 2.773 0 01-1.879 1.179 3.21 3.21 0 01-2.279-.514 3.197 3.197 0 01-1.343-1.907 12.692 12.692 0 00-2.221-4.718 13.447 13.447 0 00-3.976-3.532 13.355 13.355 0 00-5.022-1.709 12.446 12.446 0 00-5.163.418c-2.45.737-5.069.946-7.683.613a19.885 19.885 0 01-7.47-2.548zM229.032 371.545a20.044 20.044 0 01-5.923-5.253 18.944 18.944 0 01-3.317-7.02 12.71 12.71 0 00-2.222-4.718 13.464 13.464 0 00-3.976-3.533 13.352 13.352 0 00-5.021-1.707 12.444 12.444 0 00-5.163.416c-2.45.738-5.069.947-7.683.613a19.866 19.866 0 01-7.47-2.547 20.061 20.061 0 01-5.923-5.254 18.937 18.937 0 01-3.317-7.02 12.694 12.694 0 00-2.222-4.718 13.457 13.457 0 00-3.975-3.532 13.353 13.353 0 00-5.022-1.708 12.44 12.44 0 00-5.162.417 3.149 3.149 0 01-2.309-.22 3.254 3.254 0 01-1.581-1.734 2.821 2.821 0 01.074-2.231 2.72 2.72 0 011.684-1.423 18.55 18.55 0 017.684-.612 19.895 19.895 0 017.472 2.548 20.065 20.065 0 015.921 5.253 18.93 18.93 0 013.316 7.019 12.709 12.709 0 002.223 4.719 13.48 13.48 0 003.977 3.533 13.344 13.344 0 005.02 1.708c1.756.222 3.516.08 5.161-.418a18.536 18.536 0 017.685-.612 19.884 19.884 0 017.471 2.548 20.028 20.028 0 015.922 5.253 18.912 18.912 0 013.315 7.019 12.734 12.734 0 002.224 4.719 13.455 13.455 0 003.977 3.533 13.324 13.324 0 005.02 1.707c1.756.223 3.516.08 5.161-.417a18.52 18.52 0 017.685-.612 19.867 19.867 0 017.471 2.548 20.039 20.039 0 015.922 5.252 18.927 18.927 0 013.315 7.019 2.758 2.758 0 01-.379 2.183 2.773 2.773 0 01-1.879 1.18 3.213 3.213 0 01-2.278-.515 3.198 3.198 0 01-1.343-1.906 12.73 12.73 0 00-2.222-4.719 13.46 13.46 0 00-3.976-3.532 13.354 13.354 0 00-5.021-1.708 12.46 12.46 0 00-5.163.417c-2.45.737-5.07.946-7.683.613a19.856 19.856 0 01-7.47-2.548zM220.668 386.031a20.032 20.032 0 01-5.923-5.253 18.92 18.92 0 01-3.317-7.02 12.691 12.691 0 00-2.222-4.719 13.457 13.457 0 00-3.975-3.532 13.353 13.353 0 00-5.022-1.708 12.464 12.464 0 00-5.163.417c-2.45.738-5.069.948-7.683.614a19.87 19.87 0 01-7.47-2.549 20.032 20.032 0 01-5.923-5.253 18.903 18.903 0 01-3.316-7.02 12.712 12.712 0 00-2.223-4.718 13.46 13.46 0 00-3.975-3.533 13.351 13.351 0 00-5.022-1.707 12.44 12.44 0 00-5.162.416 3.144 3.144 0 01-2.309-.22 3.247 3.247 0 01-1.58-1.733 2.82 2.82 0 01.073-2.232 2.718 2.718 0 011.684-1.422 18.536 18.536 0 017.685-.612 19.89 19.89 0 017.471 2.548 20.053 20.053 0 015.922 5.253 18.912 18.912 0 013.315 7.019 12.703 12.703 0 002.224 4.719 13.464 13.464 0 003.976 3.533 13.33 13.33 0 005.02 1.707c1.756.222 3.516.08 5.162-.418a18.53 18.53 0 017.684-.611 19.867 19.867 0 017.471 2.548 20.039 20.039 0 015.922 5.252 18.93 18.93 0 013.316 7.019 12.709 12.709 0 002.223 4.719 13.497 13.497 0 003.977 3.534 13.36 13.36 0 005.02 1.707c1.756.222 3.516.08 5.161-.418a18.536 18.536 0 017.685-.612 19.884 19.884 0 017.471 2.548 20.028 20.028 0 015.922 5.253 18.912 18.912 0 013.315 7.019 2.755 2.755 0 01-.379 2.182 2.77 2.77 0 01-1.878 1.18c-.78.125-1.6-.06-2.279-.514a3.197 3.197 0 01-1.343-1.907 12.71 12.71 0 00-2.222-4.718 13.478 13.478 0 00-3.976-3.533 13.37 13.37 0 00-5.021-1.707 12.444 12.444 0 00-5.163.416c-2.45.739-5.07.948-7.683.614a19.838 19.838 0 01-7.47-2.548z" fill="#FFBE4D"/><path d="M275.977 162.402a4.54 4.54 0 01-1.782-1.923 4.169 4.169 0 01-.408-2.319c.091-.78.413-1.503.926-2.082l52.983-59.724a3.83 3.83 0 011.697-1.096 4.205 4.205 0 012.082-.114 4.552 4.552 0 011.945.898 4.542 4.542 0 011.323 1.684l28.152 62.242a4.17 4.17 0 01.37 1.99 3.83 3.83 0 01-.619 1.865 3.77 3.77 0 01-1.462 1.3 4.077 4.077 0 01-1.961.426l-81.133-2.523a4.474 4.474 0 01-2.113-.624zm53.935-55.588l-42.804 48.254 65.541 2.034-22.737-50.288z" fill="#FDBFBC"/><path d="M451.113 72.078a20.398 20.398 0 01-6.812-4.046c-1.971-1.773-3.545-3.898-4.615-6.234a12.864 12.864 0 00-3.096-4.19 13.688 13.688 0 00-4.573-2.722 13.454 13.454 0 00-5.236-.759c-1.758.1-3.448.554-4.957 1.334-2.246 1.159-4.761 1.834-7.377 1.98a20.007 20.007 0 01-7.791-1.137 20.393 20.393 0 01-6.813-4.046 19.149 19.149 0 01-4.615-6.234 12.844 12.844 0 00-3.095-4.19 13.695 13.695 0 00-4.574-2.723 13.451 13.451 0 00-5.236-.758c-1.757.1-3.447.554-4.956 1.334-.687.354-1.513.426-2.296.2a3.303 3.303 0 01-1.883-1.401c-.422-.673-.554-1.459-.367-2.185a2.638 2.638 0 011.364-1.686c2.247-1.158 4.763-1.833 7.38-1.978a20.023 20.023 0 017.791 1.136 20.38 20.38 0 016.811 4.045 19.132 19.132 0 014.614 6.233 12.866 12.866 0 003.097 4.191 13.702 13.702 0 004.575 2.723c1.692.6 3.477.858 5.235.758 1.757-.1 3.446-.554 4.955-1.334 2.247-1.158 4.763-1.833 7.379-1.978a20.032 20.032 0 017.792 1.136 20.4 20.4 0 016.811 4.045 19.158 19.158 0 014.614 6.233 12.867 12.867 0 003.097 4.191 13.708 13.708 0 004.574 2.723c1.693.6 3.478.858 5.235.758 1.757-.1 3.447-.554 4.955-1.334 2.247-1.158 4.763-1.832 7.38-1.978a20.027 20.027 0 017.791 1.136 20.393 20.393 0 016.811 4.045c1.97 1.773 3.544 3.898 4.614 6.233a2.72 2.72 0 01.059 2.192 2.692 2.692 0 01-1.602 1.486 3.219 3.219 0 01-2.325-.091 3.244 3.244 0 01-1.685-1.614 12.86 12.86 0 00-3.095-4.19 13.693 13.693 0 00-4.574-2.723 13.452 13.452 0 00-5.236-.758c-1.758.1-3.448.554-4.956 1.334-2.246 1.159-4.762 1.834-7.378 1.98a20.012 20.012 0 01-7.791-1.137z" fill="#FFBE4D"/></svg>