<svg width="91" height="29" fill="none" xmlns="http://www.w3.org/2000/svg"><path d="M13.822 20.721c0-.84-.315-1.522-.945-2.047-.603-.525-1.378-.997-2.322-1.417a49.19 49.19 0 00-3.032-1.339 17.951 17.951 0 01-3.031-1.693 9.273 9.273 0 01-2.323-2.52c-.603-.996-.905-2.27-.905-3.818 0-1.338.223-2.493.669-3.464a6.587 6.587 0 011.89-2.48C4.663 1.285 5.647.8 6.775.485 7.904.17 9.164.013 10.555.013c1.6 0 3.11.145 4.527.433 1.417.263 2.585.657 3.504 1.182l-1.693 4.527c-.577-.368-1.444-.696-2.598-.984-1.155-.315-2.402-.473-3.74-.473-1.26 0-2.231.25-2.914.748-.656.499-.984 1.168-.984 2.008 0 .787.302 1.444.906 1.968.63.525 1.404 1.01 2.322 1.457.945.446 1.956.906 3.032 1.378a14.907 14.907 0 013.031 1.732 8.071 8.071 0 012.323 2.48c.63.971.945 2.192.945 3.662 0 1.47-.25 2.742-.748 3.818a6.97 6.97 0 01-2.047 2.638c-.867.709-1.93 1.234-3.19 1.575-1.233.341-2.598.512-4.094.512-1.968 0-3.7-.184-5.196-.552-1.496-.367-2.599-.734-3.307-1.102l1.732-4.606c.289.157.656.328 1.102.512.473.184.998.354 1.575.512.577.157 1.181.288 1.811.393.656.105 1.325.158 2.008.158 1.6 0 2.821-.263 3.661-.788.866-.55 1.3-1.378 1.3-2.48zM20.644 8.438h2.716v-3.7l5.118-1.457v5.157h4.803v4.33h-4.803v7.56c0 1.364.131 2.349.394 2.952.288.578.813.866 1.575.866.524 0 .97-.052 1.338-.157a8.868 8.868 0 001.3-.473l.905 3.937c-.709.341-1.536.63-2.48.866-.945.236-1.903.355-2.875.355-1.81 0-3.149-.46-4.015-1.378-.84-.945-1.26-2.48-1.26-4.606v-9.921h-2.716v-4.33zM36.298 9.58c1.05-.472 2.296-.84 3.74-1.102a23.043 23.043 0 014.527-.433c1.365 0 2.507.17 3.425.511.919.315 1.64.775 2.166 1.378a4.923 4.923 0 011.141 2.166c.236.84.355 1.784.355 2.834 0 1.155-.04 2.323-.119 3.504a76.488 76.488 0 00-.157 3.425c0 1.128.04 2.23.118 3.307a12.34 12.34 0 00.59 2.992h-4.172l-.827-2.717h-.197c-.525.814-1.26 1.523-2.205 2.126-.918.578-2.112.866-3.582.866-.919 0-1.745-.13-2.48-.393a5.772 5.772 0 01-1.89-1.181 5.654 5.654 0 01-1.22-1.811c-.29-.709-.434-1.496-.434-2.362 0-1.208.263-2.218.788-3.032.551-.84 1.325-1.509 2.323-2.008 1.023-.524 2.23-.879 3.621-1.063 1.418-.21 2.992-.275 4.725-.196.184-1.47.078-2.52-.315-3.15-.394-.656-1.273-.984-2.638-.984a18.31 18.31 0 00-3.268.315c-1.128.21-2.06.486-2.795.827l-1.22-3.82zm6.496 14.645c1.023 0 1.837-.223 2.44-.67.604-.472 1.05-.97 1.34-1.495V19.5a14.297 14.297 0 00-2.363-.039 8.5 8.5 0 00-1.968.355c-.578.184-1.037.446-1.378.787-.342.341-.512.774-.512 1.3 0 .734.21 1.312.63 1.732.446.393 1.05.59 1.81.59zM69.883 26.902c-.787.578-1.745 1.01-2.874 1.3a12.404 12.404 0 01-3.425.472c-1.575 0-2.913-.25-4.016-.748-1.076-.499-1.955-1.194-2.637-2.087-.683-.918-1.181-2.02-1.496-3.307-.289-1.286-.433-2.703-.433-4.252 0-3.333.748-5.892 2.244-7.677 1.496-1.81 3.674-2.716 6.535-2.716 1.443 0 2.598.118 3.464.354.893.237 1.693.538 2.402.906l-1.22 4.173a10.115 10.115 0 00-1.812-.67c-.577-.157-1.246-.236-2.007-.236-1.418 0-2.494.473-3.229 1.418-.734.918-1.102 2.401-1.102 4.448 0 .84.092 1.614.276 2.323a5.68 5.68 0 00.826 1.85 4.1 4.1 0 001.418 1.26c.603.289 1.299.433 2.086.433.866 0 1.601-.105 2.205-.315a8.457 8.457 0 001.614-.826l1.18 3.897zM79.474 19.973h-1.378v8.15h-5.118V.564h5.118v16.259l1.18-.551 4.489-7.835h5.63l-4.725 7.48-2.007 1.496 2.165 1.536 5.315 9.172h-5.866l-4.803-8.149z" fill="#504A62"/></svg>